####
#
# OBJ File Generated by Meshlab
#
####
# Object Container.obj
#
# Vertices: 138
# Faces: 272
#
####
vn 4.612654 -0.026797 -4.114061
v 0.222500 0.275300 -0.172400
vn 4.550161 -1.654968 -1.462710
v 0.229700 0.267400 -0.162200
vn 4.480780 0.017945 4.392814
v 0.167900 0.252000 0.182800
vn 4.124440 -0.062520 4.697419
v 0.156500 0.255500 0.194100
vn -6.083307 0.044370 -1.563353
v -0.166000 0.454100 -0.170800
vn 5.154303 0.348367 -3.346932
v 0.205300 0.886400 -0.142500
vn 3.248581 1.236504 -4.884175
v 0.178000 1.211600 -0.145000
vn -1.092696 1.606815 -5.382527
v -0.107900 1.204900 -0.196700
vn 3.387774 -4.508846 -0.324029
v 0.221000 0.248200 -0.061200
vn 3.561651 -4.098373 -0.312917
v 0.221600 0.249300 -0.069900
vn 1.897428 -0.052995 -5.983217
v 0.186900 0.266100 -0.186100
vn 2.867564 -4.226522 -2.163877
v 0.225400 0.263700 -0.163800
vn -0.594350 -1.112851 5.978741
v 0.028900 0.221400 0.191700
vn 2.319463 2.900755 3.456159
v 0.178300 1.227700 0.074300
vn -6.183729 -0.737018 -0.250991
v -0.203800 0.257700 0.100700
vn -6.255549 -0.160609 -0.291849
v -0.203800 0.270300 0.086800
vn -5.510069 -1.986075 -0.079078
v -0.203800 0.255200 0.109600
vn -6.277629 0.154769 0.213675
v -0.195400 0.647800 0.076700
vn 4.545891 -3.659170 0.364136
v 0.209800 0.239700 0.019900
vn 3.644054 -4.774430 0.024068
v 0.210900 0.240300 0.010800
vn 4.716478 -3.792778 0.441727
v 0.206900 0.238500 0.040800
vn -3.602153 -4.304626 -1.066164
v -0.144900 0.241800 -0.212900
vn 2.909005 2.752033 -1.197323
v 0.192300 1.247000 -0.106000
vn -0.063509 3.215393 -3.362173
v -0.069000 1.223900 -0.192900
vn 0.658773 6.022064 -0.602751
v 0.191400 1.247300 -0.105000
vn 3.843800 1.916983 -3.626223
v 0.180000 1.213900 -0.142700
vn 5.714128 0.736359 -2.470331
v 0.191900 1.244800 -0.107600
vn 2.641629 3.747063 0.594349
v 0.187100 1.248900 0.000700
vn 6.250276 0.210259 0.011038
v 0.214100 0.758300 -0.126600
vn 5.996015 0.298808 -1.401189
v 0.209600 0.847600 -0.137600
vn 5.561166 0.378574 -2.529229
v 0.197400 1.061300 -0.135300
vn 1.534801 0.242189 -6.036439
v 0.123700 0.676900 -0.194700
vn 1.134063 2.577374 -4.423047
v 0.110700 1.217100 -0.176100
vn -1.355260 5.633378 -1.590667
v -0.117200 1.222700 -0.170300
vn -2.727542 5.300292 -0.768776
v -0.143900 1.220700 -0.125900
vn -1.123695 -3.277169 3.808192
v -0.079000 0.224300 0.171500
vn -1.465130 -3.136842 4.610773
v -0.106900 0.227300 0.164800
vn -1.303666 -0.229009 6.126506
v -0.040000 0.231600 0.181200
vn -0.840078 -2.602120 4.517892
v -0.006600 0.221000 0.187700
vn -0.719326 -5.860515 1.607924
v -0.016800 0.217400 0.177900
vn 0.968448 1.990094 5.248794
v 0.091400 1.123300 0.161600
vn 3.054930 1.813985 5.105427
v 0.146200 1.177900 0.113600
vn 1.001703 0.336465 6.156867
v 0.091300 1.118800 0.161900
vn -0.390564 1.565024 5.809498
v 0.088600 1.122100 0.161900
vn 1.281672 3.290887 4.689361
v 0.151700 1.204800 0.099500
vn 6.115203 0.160583 1.305938
v 0.200700 0.403700 0.084500
vn 6.111670 0.927428 0.618133
v 0.188200 1.244500 0.001100
vn 4.349485 -2.770574 0.201433
v 0.220600 0.247500 -0.050600
vn 2.756120 2.727191 1.760835
v 0.179800 1.229200 0.071700
vn 5.972287 -1.071239 1.316302
v 0.193900 0.241900 0.107800
vn 5.277013 -2.225451 0.797277
v 0.205800 0.238500 0.050500
vn 6.157131 0.051358 1.168772
v 0.202400 0.355300 0.079600
vn 5.850608 -0.828281 1.708224
v 0.184600 0.243800 0.151100
vn 0.015820 -0.884066 6.120843
v 0.126400 0.215000 0.198200
vn -0.404865 -1.428435 5.820412
v 0.114900 0.215000 0.198100
vn 0.434740 -0.373216 6.239347
v 0.136100 0.215500 0.197800
vn -6.162054 0.036998 -1.187003
v -0.182300 0.454800 -0.101600
vn -5.782069 -1.347410 -1.487875
v -0.168300 0.259500 -0.161700
vn -6.230552 -0.059721 -0.807660
v -0.195900 0.259600 0.005500
vn -6.239802 -0.153090 -0.692755
v -0.196000 0.256900 0.006500
vn -6.219837 0.141893 -0.506631
v -0.198500 0.617500 0.003500
vn -6.165785 -0.247445 -1.177554
v -0.178900 0.269900 -0.112400
vn -6.170891 -0.089204 -1.149370
v -0.179800 0.286100 -0.110700
vn -5.634124 -0.460516 -2.678060
v -0.150300 0.272800 -0.215100
vn -5.751946 0.098500 -2.526504
v -0.152000 0.279400 -0.211000
vn -5.719330 -0.929616 -1.977823
v -0.161700 0.264800 -0.189300
vn -4.093407 -4.309247 0.902733
v -0.202300 0.253600 0.116700
vn -5.029638 -2.217469 0.476290
v -0.203700 0.254800 0.114900
vn -4.393494 2.045431 -2.578522
v -0.144800 1.204500 -0.171900
vn -3.617692 4.894829 -1.448987
v -0.141000 1.218100 -0.143200
vn -2.824734 5.192789 -1.629487
v -0.130600 1.219100 -0.164300
vn -5.725903 1.298631 -1.734466
v -0.151500 1.204400 -0.152300
vn -2.717889 2.488372 -3.714992
v -0.129800 1.209000 -0.186700
vn -4.774197 -0.722218 -3.705487
v -0.146800 0.273400 -0.222100
vn -5.603902 -0.120439 -2.800600
v -0.148900 0.274600 -0.218200
vn -5.887621 0.139439 -2.076455
v -0.165300 0.463500 -0.173100
vn 1.551697 -2.258033 -5.435656
v 0.148300 0.250400 -0.193300
vn 0.868349 -3.503108 -3.239049
v 0.132000 0.246000 -0.196100
vn 2.089303 -2.220698 -5.466447
v 0.186500 0.259300 -0.185400
vn 1.594685 -1.352000 -5.789586
v 0.177300 0.259500 -0.188400
vn 1.991734 -1.111458 -5.719893
v 0.186600 0.261300 -0.186100
vn 1.958787 -3.918307 -3.537860
v 0.186900 0.258500 -0.184900
vn 3.083634 -1.295517 -4.670613
v 0.220300 0.272600 -0.174400
vn 0.035408 0.131556 -6.223301
v -0.072500 0.359200 -0.230800
vn -3.417839 -1.951326 -3.659109
v -0.145400 0.243700 -0.214400
vn -1.642808 -3.571867 -2.494217
v -0.144400 0.241700 -0.213900
vn -3.410301 1.749772 3.053141
v -0.175500 1.218000 0.066200
vn 5.663316 0.224540 2.689013
v 0.171400 0.442700 0.166500
vn 3.835144 0.445990 4.131579
v 0.157500 1.032700 0.146500
vn 5.073943 -0.067986 3.513273
v 0.174300 0.249200 0.176100
vn 5.694454 -0.316494 2.529563
v 0.177400 0.246200 0.169800
vn 2.102414 -1.420949 5.222446
v 0.144900 0.210700 0.196500
vn 0.431067 -1.055434 6.112641
v 0.139800 0.212100 0.197200
vn 0.917379 -3.541441 2.330525
v 0.142200 0.204000 0.194700
vn 1.985872 0.006292 5.501907
v 0.152500 0.255700 0.197300
vn 3.511266 -2.661904 2.045294
v 0.168500 0.216500 0.180300
vn -6.245382 0.277314 -0.594462
v -0.184200 0.952500 0.005900
vn -5.867878 -1.857306 -0.978579
v -0.179200 0.251700 -0.103600
vn -5.758368 -1.570765 -1.346253
v -0.175600 0.253500 -0.125500
vn -4.131741 -3.803329 -0.746336
v -0.176500 0.249300 -0.114000
vn -6.097528 -0.890534 -0.999902
v -0.182000 0.255200 -0.091500
vn -4.368064 -2.940484 -0.499292
v -0.195600 0.251400 0.004700
vn -6.098930 -0.858040 -0.908600
v -0.185500 0.256200 -0.070600
vn -4.622843 -0.453954 4.085948
v -0.190300 0.259100 0.143900
vn -4.562720 -2.099025 2.722262
v -0.198100 0.256600 0.133400
vn -6.088785 0.199271 1.522984
v -0.180700 0.933300 0.128100
vn -5.361778 -1.161350 2.078244
v -0.201000 0.258500 0.128800
vn -6.204790 0.233816 0.635177
v -0.187900 0.923200 0.096500
vn -4.672109 0.267231 3.259836
v -0.177700 0.983000 0.133300
vn -2.962732 -3.762008 3.691487
v -0.168100 0.234200 0.145300
vn -2.109051 -3.288733 4.839612
v -0.160700 0.231100 0.146900
vn -2.888473 -1.531256 4.335681
v -0.184200 0.254000 0.149500
vn -3.639340 -3.815994 3.230485
v -0.171900 0.237800 0.145400
vn -1.774206 -4.772358 1.807990
v -0.160400 0.228800 0.145100
vn -3.530267 -4.755661 1.544599
v -0.168600 0.233900 0.144100
vn 0.532753 -0.264196 -6.243251
v -0.066200 0.298800 -0.228900
vn 0.211111 -0.090576 -6.237657
v -0.071500 0.334600 -0.230700
vn 1.475850 0.105093 -6.053882
v 0.130800 0.392600 -0.203500
vn -0.817707 -1.157474 -6.065465
v -0.113500 0.262600 -0.226700
vn -2.662029 -0.383870 -4.907393
v -0.145000 0.276100 -0.224400
vn -1.076974 -1.897450 -5.881270
v -0.123800 0.258900 -0.223800
vn 0.663763 -0.712647 -6.205784
v -0.063100 0.277800 -0.226900
vn -0.266976 -1.613716 -5.790485
v -0.099300 0.259200 -0.227900
vn 0.702266 -1.960207 -5.742018
v 0.017300 0.245400 -0.213100
vn 0.507391 -3.512706 -3.407742
v 0.027700 0.244600 -0.211500
vn 0.335102 -3.169499 -4.470158
v -0.064800 0.248200 -0.223500
vn 0.750478 -1.236823 -6.082182
v 0.000100 0.246700 -0.215500
vn 1.135465 -0.510705 -6.134295
v 0.130700 0.269600 -0.199800
vn 0.599800 -0.450448 -6.225195
v -0.064400 0.288200 -0.228200
vn -1.008222 2.128661 5.759822
v -0.099400 1.115900 0.133400
vn -6.235419 0.334890 -0.696990
v -0.173800 1.219500 0.039300
vn -5.048597 2.377068 -1.175548
v -0.154600 1.208100 -0.137800
vn -2.337622 2.493222 1.146796
v -0.175700 1.227400 0.060100
vn -6.235847 0.329774 -0.695584
v -0.173900 1.126400 -0.004300
vn -1.570378 1.802658 5.809031
v -0.144900 1.111400 0.125000
vn -2.103979 2.200613 5.367829
v -0.150500 1.117900 0.121400
vn -3.131767 0.728044 4.205982
v -0.168400 1.050000 0.136900
vn -1.268357 1.985757 5.798161
v -0.133400 1.111400 0.128000
# 138 vertices, 0 vertices normals

f 25//25 133//133 28//28
f 52//52 51//51 48//48
f 114//114 86//86 94//94
f 30//30 29//29 2//2
f 29//29 48//48 2//2
f 6//6 30//30 2//2
f 94//94 40//40 114//114
f 39//39 40//40 94//94
f 39//39 94//94 55//55
f 94//94 20//20 96//96
f 61//61 60//60 16//16
f 102//102 100//100 114//114
f 60//60 102//102 16//16
f 100//100 22//22 114//114
f 114//114 22//22 86//86
f 25//25 34//34 133//133
f 24//24 34//34 25//25
f 133//133 34//34 35//35
f 34//34 24//24 73//73
f 73//73 8//8 120//120
f 24//24 8//8 73//73
f 48//48 10//10 2//2
f 2//2 1//1 6//6
f 83//83 1//1 2//2
f 6//6 1//1 7//7
f 83//83 7//7 1//1
f 12//12 83//83 2//2
f 10//10 12//12 2//2
f 10//10 78//78 12//12
f 44//44 13//13 55//55
f 55//55 13//13 39//39
f 14//14 133//133 45//45
f 133//133 49//49 28//28
f 14//14 49//49 133//133
f 89//89 49//49 14//14
f 17//17 61//61 16//16
f 61//61 17//17 68//68
f 102//102 68//68 17//17
f 61//61 108//108 133//133
f 55//55 95//95 44//44
f 43//43 44//44 95//95
f 89//89 95//95 4//4
f 4//4 95//95 96//96
f 89//89 3//3 90//90
f 4//4 3//3 89//89
f 90//90 3//3 96//96
f 3//3 4//4 96//96
f 51//51 96//96 21//21
f 58//58 63//63 57//57
f 76//76 5//5 57//57
f 57//57 5//5 58//58
f 66//66 5//5 76//76
f 5//5 66//66 58//58
f 102//102 114//114 67//67
f 102//102 67//67 68//68
f 6//6 31//31 30//30
f 31//31 26//26 27//27
f 7//7 26//26 6//6
f 6//6 26//26 31//31
f 33//33 26//26 7//7
f 83//83 33//33 7//7
f 8//8 84//84 120//120
f 84//84 8//8 24//24
f 33//33 84//84 24//24
f 48//48 9//9 10//10
f 20//20 94//94 9//9
f 20//20 9//9 48//48
f 78//78 9//9 94//94
f 10//10 9//9 78//78
f 83//83 11//11 118//118
f 11//11 81//81 118//118
f 81//81 11//11 83//83
f 12//12 78//78 82//82
f 12//12 82//82 83//83
f 38//38 137//137 112//112
f 39//39 137//137 38//38
f 137//137 13//13 44//44
f 13//13 137//137 39//39
f 14//14 42//42 89//89
f 45//45 42//42 14//14
f 49//49 47//47 28//28
f 29//29 47//47 48//48
f 102//102 15//15 16//16
f 15//15 17//17 16//16
f 17//17 15//15 102//102
f 61//61 68//68 18//18
f 108//108 18//18 68//68
f 61//61 18//18 108//108
f 20//20 19//19 96//96
f 21//21 96//96 19//19
f 48//48 19//19 20//20
f 51//51 19//19 48//48
f 21//21 19//19 51//51
f 35//35 132//132 133//133
f 61//61 132//132 57//57
f 70//70 132//132 35//35
f 99//99 22//22 100//100
f 22//22 99//99 58//58
f 103//103 61//61 57//57
f 63//63 103//103 57//57
f 60//60 103//103 102//102
f 75//75 65//65 76//76
f 65//65 66//66 76//76
f 22//22 58//58 85//85
f 66//66 85//85 58//58
f 22//22 85//85 86//86
f 120//120 85//85 74//74
f 67//67 114//114 115//115
f 115//115 105//105 67//67
f 23//23 24//24 25//25
f 24//24 23//23 33//33
f 26//26 23//23 27//27
f 33//33 23//23 26//26
f 28//28 23//23 25//25
f 47//47 23//23 28//28
f 23//23 47//47 29//29
f 23//23 29//29 30//30
f 31//31 23//23 30//30
f 31//31 27//27 23//23
f 118//118 32//32 83//83
f 33//33 83//83 32//32
f 84//84 32//32 118//118
f 84//84 33//33 32//32
f 34//34 71//71 35//35
f 70//70 35//35 71//71
f 71//71 34//34 73//73
f 81//81 80//80 118//118
f 118//118 80//80 128//128
f 126//126 86//86 123//123
f 126//126 125//125 86//86
f 86//86 125//125 94//94
f 94//94 125//125 78//78
f 78//78 125//125 128//128
f 37//37 111//111 114//114
f 112//112 111//111 37//37
f 37//37 36//36 112//112
f 38//38 112//112 36//36
f 38//38 36//36 39//39
f 36//36 40//40 39//39
f 40//40 36//36 114//114
f 37//37 114//114 36//36
f 108//108 87//87 133//133
f 44//44 130//130 137//137
f 87//87 130//130 44//44
f 42//42 41//41 89//89
f 89//89 41//41 95//95
f 95//95 41//41 43//43
f 43//43 41//41 44//44
f 42//42 45//45 41//41
f 45//45 133//133 41//41
f 87//87 44//44 41//41
f 87//87 41//41 133//133
f 53//53 52//52 46//46
f 53//53 46//46 49//49
f 49//49 46//46 47//47
f 48//48 46//46 52//52
f 47//47 46//46 48//48
f 96//96 91//91 90//90
f 53//53 91//91 96//96
f 91//91 49//49 89//89
f 49//49 91//91 53//53
f 50//50 51//51 52//52
f 53//53 50//50 52//52
f 51//51 50//50 96//96
f 96//96 50//50 53//53
f 56//56 93//93 95//95
f 95//95 55//55 54//54
f 56//56 95//95 54//54
f 54//54 93//93 56//56
f 55//55 94//94 54//54
f 93//93 54//54 94//94
f 133//133 97//97 61//61
f 132//132 61//61 97//97
f 72//72 76//76 57//57
f 132//132 72//72 57//57
f 58//58 62//62 63//63
f 99//99 62//62 58//58
f 61//61 59//59 60//60
f 103//103 59//59 61//61
f 103//103 60//60 59//59
f 99//99 101//101 62//62
f 63//63 101//101 103//103
f 62//62 101//101 63//63
f 64//64 65//65 75//75
f 65//65 64//64 66//66
f 74//74 64//64 75//75
f 85//85 64//64 74//74
f 66//66 64//64 85//85
f 67//67 107//107 68//68
f 105//105 107//107 67//67
f 108//108 68//68 107//107
f 137//137 109//109 112//112
f 105//105 109//109 107//107
f 108//108 109//109 87//87
f 87//87 109//109 137//137
f 105//105 113//113 112//112
f 113//113 105//105 115//115
f 132//132 70//70 69//69
f 71//71 69//69 70//70
f 72//72 132//132 69//69
f 69//69 71//71 73//73
f 120//120 69//69 73//73
f 74//74 69//69 120//120
f 74//74 75//75 69//69
f 75//75 76//76 69//69
f 72//72 69//69 76//76
f 82//82 78//78 77//77
f 77//77 80//80 82//82
f 128//128 77//77 78//78
f 80//80 77//77 128//128
f 80//80 81//81 79//79
f 80//80 79//79 82//82
f 81//81 83//83 79//79
f 82//82 79//79 83//83
f 117//117 84//84 118//118
f 84//84 117//117 120//120
f 123//123 120//120 117//117
f 121//121 85//85 120//120
f 85//85 121//121 86//86
f 123//123 86//86 121//121
f 130//130 87//87 136//136
f 87//87 137//137 136//136
f 89//89 90//90 88//88
f 91//91 88//88 90//90
f 88//88 91//91 89//89
f 93//93 94//94 92//92
f 93//93 92//92 95//95
f 96//96 92//92 94//94
f 95//95 92//92 96//96
f 133//133 134//134 97//97
f 97//97 134//134 132//132
f 98//98 99//99 100//100
f 99//99 98//98 101//101
f 102//102 98//98 100//100
f 103//103 98//98 102//102
f 101//101 98//98 103//103
f 105//105 112//112 104//104
f 109//109 104//104 112//112
f 104//104 109//109 105//105
f 107//107 106//106 108//108
f 109//109 108//108 106//106
f 109//109 106//106 107//107
f 111//111 112//112 110//110
f 113//113 110//110 112//112
f 111//111 110//110 114//114
f 115//115 114//114 110//110
f 110//110 113//113 115//115
f 123//123 116//116 129//129
f 117//117 116//116 123//123
f 128//128 129//129 116//116
f 128//128 116//116 118//118
f 116//116 117//117 118//118
f 123//123 119//119 120//120
f 119//119 121//121 120//120
f 121//121 119//119 123//123
f 127//127 122//122 129//129
f 127//127 126//126 122//122
f 129//129 122//122 123//123
f 123//123 122//122 126//126
f 125//125 126//126 124//124
f 127//127 124//124 126//126
f 125//125 124//124 128//128
f 128//128 124//124 129//129
f 129//129 124//124 127//127
f 130//130 138//138 137//137
f 136//136 138//138 130//130
f 132//132 131//131 133//133
f 131//131 134//134 133//133
f 134//134 131//131 132//132
f 136//136 137//137 135//135
f 138//138 135//135 137//137
f 135//135 138//138 136//136
# 272 faces, 0 coords texture

# End of File
