####
#
# OBJ File Generated by Meshlab
#
####
# Object Cover.obj
#
# Vertices: 126
# Faces: 248
#
####
vn 0.723258 5.858624 1.372907
v 0.146900 0.221200 0.198500
vn 0.003438 3.314559 3.666632
v 0.145500 0.220500 0.201100
vn -2.320337 -2.549798 5.250853
v -0.172900 0.153800 0.137200
vn -0.327484 -6.243927 0.337980
v -0.101300 0.138100 0.067000
vn 2.139373 -5.467215 1.389611
v 0.143600 0.158700 0.164600
vn 0.795092 -6.157872 0.408855
v 0.099900 0.144000 0.088500
vn 1.923261 5.931669 0.743177
v 0.190000 0.216900 0.139000
vn 3.101861 3.902287 0.383873
v 0.215600 0.222600 0.017800
vn 1.542415 5.706278 1.317673
v 0.157700 0.220600 0.191800
vn 3.115447 2.599365 2.891566
v 0.173000 0.211100 0.199200
vn 3.947791 3.608740 1.154077
v 0.201200 0.213700 0.133800
vn -1.223184 2.846343 3.012150
v -0.199400 0.212100 0.149400
vn -2.256788 -1.200705 5.551457
v -0.198700 0.209200 0.149500
vn -2.583621 -2.664594 5.038232
v -0.184000 0.152800 0.131700
vn -2.701315 1.475812 2.911388
v -0.202600 0.211100 0.148100
vn -3.633607 -4.202615 -1.781876
v -0.162300 0.171300 -0.197700
vn -0.048468 -6.249377 0.410332
v -0.089400 0.137900 0.069300
vn -0.520884 -5.791255 1.980399
v -0.101700 0.149000 0.151800
vn 0.665938 -5.377038 2.301791
v 0.125300 0.155900 0.171500
vn -5.789205 -1.969822 -1.439768
v -0.185600 0.204500 -0.171500
vn 6.237522 0.148792 0.535228
v 0.218100 0.211500 0.018600
vn 6.098244 0.831262 0.743131
v 0.217300 0.212800 0.026500
vn 5.531507 -1.851478 2.008569
v 0.201200 0.202700 0.139700
vn 5.033947 -3.185189 1.793253
v 0.195900 0.191700 0.139200
vn 2.380428 0.084251 3.900295
v 0.169800 0.197100 0.207200
vn -4.679666 -2.814924 2.583539
v -0.213100 0.189600 0.126900
vn -4.901808 -1.112601 2.447013
v -0.216200 0.196000 0.127800
vn 5.541694 -0.099715 1.558607
v 0.203100 0.205400 0.136400
vn 6.168053 -0.711804 0.683830
v 0.216200 0.200200 0.033900
vn 5.081487 -3.235316 1.342580
v 0.197700 0.183800 0.117600
vn 3.536018 -4.719142 0.781038
v 0.192600 0.174300 0.108500
vn -1.460779 -6.089052 -0.162277
v -0.178700 0.149800 0.104800
vn -1.262658 -6.069589 -0.589201
v -0.099500 0.141000 -0.100200
vn -0.766720 -6.217931 0.064739
v -0.113300 0.139000 0.062900
vn -2.371840 -5.738303 -0.455258
v -0.179500 0.150200 0.101600
vn 0.460923 -6.192734 -0.469370
v 0.090800 0.139800 -0.058200
vn -2.208720 -4.732722 -2.175631
v -0.156400 0.169100 -0.202500
vn 0.775537 -6.125438 -1.104110
v 0.133900 0.152700 -0.105400
vn 2.232777 -5.872836 0.052974
v 0.126300 0.146100 -0.061200
vn -5.064682 -3.473751 1.131016
v -0.207900 0.179200 0.121700
vn -2.440163 -3.821525 1.815549
v -0.185900 0.151000 0.129700
vn -5.651433 -2.276056 -1.432332
v -0.176100 0.188800 -0.187600
vn -5.906320 -1.008532 -1.054403
v -0.189600 0.207700 -0.159700
vn -1.030596 -0.559302 6.004098
v -0.160600 0.196900 0.157700
vn -0.950060 0.190228 6.142535
v -0.081700 0.197800 0.170100
vn -1.267448 -2.575237 5.538393
v -0.149600 0.156900 0.146200
vn -1.142706 -4.205763 3.138671
v -0.166000 0.150700 0.138700
vn -1.230802 -0.718697 5.926665
v -0.171100 0.197400 0.155900
vn -2.132254 -1.778944 5.510652
v -0.183400 0.195500 0.152000
vn -0.121170 -4.897759 3.123277
v 0.028800 0.153300 0.170700
vn 2.390700 0.603135 -4.614329
v 0.202000 0.212900 -0.202700
vn -5.850597 1.621222 0.583627
v -0.218800 0.207400 0.104100
vn -2.943461 5.400757 0.185195
v -0.218300 0.213100 0.064700
vn -4.466027 2.727951 1.416794
v -0.215200 0.208600 0.126400
vn -2.917809 4.746613 1.330891
v -0.207700 0.211400 0.137500
vn 5.173005 -2.568125 -1.556635
v 0.228700 0.192300 -0.165800
vn 3.432330 -5.017143 0.299911
v 0.207500 0.178000 0.032700
vn -4.759438 -3.095059 -1.850395
v -0.170500 0.179000 -0.193500
vn -5.453278 -2.037328 -2.363614
v -0.175500 0.211700 -0.210300
vn -5.813835 -1.133207 -1.682238
v -0.182400 0.213200 -0.195400
vn -5.383679 0.716504 -2.484004
v -0.178600 0.232200 -0.214800
vn -3.085377 1.337576 -4.169521
v -0.166400 0.228500 -0.230100
vn -1.562500 3.042209 -3.468611
v -0.153000 0.228800 -0.238700
vn 4.676042 1.194081 -3.912836
v 0.221300 0.211100 -0.184200
vn 4.543305 -0.853677 -3.468061
v 0.224800 0.202700 -0.181800
vn 3.424620 -0.916332 -4.720029
v 0.206400 0.210000 -0.199100
vn 0.915553 5.755774 -1.833705
v 0.207900 0.222400 -0.190200
vn 2.817919 3.274242 -3.346644
v 0.211200 0.220600 -0.192100
vn 2.954006 2.761121 -0.697361
v 0.232000 0.224300 -0.163400
vn -2.629644 3.021825 -1.087436
v -0.178900 0.236100 -0.212400
vn -1.472029 -3.758024 -4.699091
v -0.129700 0.178600 -0.226100
vn -1.719354 -3.536444 -4.843135
v -0.140000 0.179900 -0.223600
vn 0.500568 -1.506901 -6.065450
v -0.039400 0.222800 -0.243800
vn 0.402511 2.271217 -3.363106
v -0.013600 0.225800 -0.242300
vn 3.288906 -4.865555 -0.971865
v 0.218600 0.180300 -0.165300
vn 1.348967 -6.042624 -0.255051
v 0.118300 0.143100 -0.056900
vn -5.711607 -2.203824 -0.400471
v -0.221000 0.199500 0.042300
vn -5.203563 -3.363273 0.118749
v -0.214200 0.184800 0.102700
vn -4.735637 -3.977604 -0.517711
v -0.211300 0.184800 0.036900
vn -5.672850 -1.923041 -0.856103
v -0.218400 0.198400 0.023500
vn -5.693192 -1.268885 0.772887
v -0.218700 0.194900 0.115100
vn -0.945228 -1.727062 5.965908
v -0.067300 0.190500 0.171100
vn -0.979744 -1.264020 6.044755
v -0.122700 0.194000 0.163300
vn -0.555494 -3.788188 4.650208
v -0.066500 0.150200 0.158600
vn -0.557841 -4.018777 3.354364
v -0.089200 0.149000 0.154900
vn -0.112191 -5.695732 2.139293
v -0.052600 0.148900 0.157900
vn -0.440955 -4.158987 4.406651
v -0.002300 0.152800 0.167700
vn 1.557420 -1.797489 3.409047
v 0.166500 0.188900 0.207600
vn -5.623864 2.482449 0.163446
v -0.219100 0.211900 0.075300
vn -5.651934 2.404858 -0.355721
v -0.220100 0.210900 0.043600
vn -6.016798 0.119554 -0.260403
v -0.222000 0.203700 0.044300
vn -3.673244 3.672292 0.308860
v -0.218700 0.212200 0.084300
vn -4.009904 4.406615 0.000310
v -0.218700 0.213300 0.045900
vn 6.125310 -1.327950 0.437610
v 0.228900 0.191800 -0.152800
vn 5.329312 -2.733611 0.612268
v 0.212700 0.184000 0.035500
vn 5.710469 -0.452478 -1.144878
v 0.232900 0.206300 -0.165300
vn 4.734586 -3.264788 -0.050981
v 0.227700 0.186500 -0.152400
vn -3.594724 -2.119708 -4.685163
v -0.162900 0.215700 -0.227800
vn -2.719414 -3.424010 -3.882688
v -0.151200 0.179300 -0.219000
vn -4.375259 -0.311761 -3.371539
v -0.175400 0.225400 -0.222300
vn 0.885540 1.855730 -4.010996
v 0.160700 0.217500 -0.216000
vn 0.386193 -6.072300 -1.522861
v 0.075100 0.153100 -0.131400
vn -0.211625 -6.106145 -0.887405
v -0.076600 0.138300 -0.104200
vn 1.896253 -0.536516 -5.364592
v 0.188800 0.211500 -0.208000
vn 3.115070 -3.512402 -3.166535
v 0.214200 0.183200 -0.181200
vn 0.838417 -2.584528 -5.605290
v 0.132500 0.201600 -0.215300
vn 0.787347 -2.312146 -5.748347
v 0.042800 0.208200 -0.230800
vn 0.740503 -1.560486 -5.973041
v 0.020500 0.215700 -0.236200
vn 0.577566 -1.950689 -5.928122
v 0.006100 0.216500 -0.237900
vn 1.874314 -5.957987 -0.617167
v 0.200400 0.173900 -0.163700
vn 1.389968 -6.007964 -0.720155
v 0.187500 0.169100 -0.155600
vn 2.066009 -5.889009 -0.546256
v 0.209900 0.177200 -0.165700
vn 0.280351 -5.967661 -1.941037
v -0.061400 0.170100 -0.207500
vn -0.635200 -4.198466 -3.972827
v -0.117600 0.176000 -0.227600
vn -0.140029 -5.935110 -1.984131
v -0.111600 0.169200 -0.211700
vn -0.927075 0.747357 -4.194746
v -0.138000 0.221500 -0.248400
vn 0.253744 -0.103940 -5.828547
v -0.071900 0.221300 -0.246100
vn 1.566093 -4.667754 -2.795943
v 0.199100 0.176200 -0.183000
vn 0.044329 -4.158085 -3.880737
v -0.103000 0.175200 -0.228100
vn 0.522622 -5.353395 -2.962340
v 0.107900 0.175400 -0.198200
vn 0.747617 -4.563311 -4.247837
v 0.176200 0.180400 -0.191900
vn 1.402091 -3.692493 -4.725449
v 0.188300 0.182300 -0.191700
vn 0.721824 -3.793445 -4.945006
v -0.010200 0.181000 -0.222600
vn 0.465609 -3.496110 -4.956840
v -0.049500 0.182000 -0.229100
vn 1.070895 -2.956012 -5.322254
v 0.161800 0.198300 -0.209000
vn 0.601241 -4.559355 -4.039143
v 0.050500 0.178100 -0.211400
# 126 vertices, 0 vertices normals

f 41//41 4//4 47//47
f 4//4 103//103 17//17
f 70//70 12//12 1//1
f 2//2 1//1 12//12
f 17//17 36//36 6//6
f 103//103 36//36 17//17
f 6//6 86//86 17//17
f 70//70 43//43 91//91
f 8//8 70//70 1//1
f 10//10 11//11 9//9
f 8//8 1//1 9//9
f 2//2 9//9 1//1
f 9//9 2//2 10//10
f 41//41 34//34 4//4
f 4//4 34//34 103//103
f 25//25 2//2 88//88
f 2//2 25//25 10//10
f 2//2 45//45 88//88
f 12//12 45//45 2//2
f 44//44 45//45 12//12
f 49//49 3//3 47//47
f 13//13 14//14 49//49
f 3//3 49//49 14//14
f 47//47 14//14 41//41
f 3//3 14//14 47//47
f 49//49 48//48 13//13
f 12//12 13//13 48//48
f 12//12 48//48 44//44
f 70//70 91//91 90//90
f 12//12 70//70 55//55
f 5//5 31//31 88//88
f 36//36 76//76 6//6
f 5//5 6//6 76//76
f 31//31 76//76 57//57
f 31//31 5//5 76//76
f 116//116 72//72 99//99
f 41//41 16//16 35//35
f 35//35 16//16 37//37
f 37//37 16//16 99//99
f 18//18 4//4 17//17
f 4//4 18//18 47//47
f 5//5 19//19 6//6
f 19//19 86//86 6//6
f 88//88 19//19 5//5
f 8//8 69//69 70//70
f 22//22 8//8 11//11
f 22//22 69//69 8//8
f 8//8 7//7 11//11
f 7//7 9//9 11//11
f 9//9 7//7 8//8
f 10//10 28//28 11//11
f 25//25 28//28 10//10
f 22//22 11//11 28//28
f 22//22 28//28 29//29
f 53//53 70//70 93//93
f 90//90 93//93 70//70
f 55//55 15//15 12//12
f 12//12 15//15 13//13
f 41//41 15//15 27//27
f 14//14 15//15 41//41
f 15//15 14//14 13//13
f 81//81 27//27 54//54
f 15//15 54//54 27//27
f 54//54 15//15 55//55
f 88//88 30//30 24//24
f 31//31 30//30 88//88
f 74//74 63//63 70//70
f 116//116 63//63 74//74
f 34//34 33//33 103//103
f 103//103 33//33 37//37
f 35//35 37//37 33//33
f 37//37 115//115 103//103
f 36//36 38//38 76//76
f 105//105 75//75 118//118
f 56//56 75//75 105//105
f 41//41 79//79 16//16
f 60//60 58//58 42//42
f 59//59 58//58 60//60
f 79//79 58//58 16//16
f 16//16 58//58 99//99
f 86//86 85//85 17//17
f 85//85 18//18 17//17
f 48//48 85//85 44//44
f 18//18 85//85 47//47
f 50//50 19//19 88//88
f 19//19 50//50 86//86
f 43//43 20//20 42//42
f 42//42 20//20 60//60
f 60//60 20//20 43//43
f 65//65 69//69 96//96
f 56//56 65//65 96//96
f 105//105 65//65 56//56
f 96//96 21//21 29//29
f 22//22 29//29 21//21
f 69//69 21//21 96//96
f 22//22 21//21 69//69
f 24//24 23//23 88//88
f 88//88 23//23 25//25
f 25//25 23//23 28//28
f 30//30 23//23 24//24
f 28//28 23//23 30//30
f 81//81 26//26 27//27
f 40//40 26//26 81//81
f 27//27 26//26 41//41
f 41//41 26//26 40//40
f 81//81 52//52 91//91
f 54//54 52//52 81//81
f 28//28 95//95 29//29
f 30//30 95//95 28//28
f 57//57 95//95 31//31
f 31//31 95//95 30//30
f 29//29 95//95 96//96
f 43//43 70//70 61//61
f 61//61 60//60 43//43
f 101//101 68//68 51//51
f 51//51 104//104 101//101
f 105//105 104//104 51//51
f 32//32 33//33 34//34
f 33//33 32//32 35//35
f 34//34 41//41 32//32
f 35//35 32//32 41//41
f 38//38 102//102 118//118
f 36//36 103//103 102//102
f 102//102 38//38 36//36
f 114//114 115//115 37//37
f 37//37 99//99 114//114
f 38//38 111//111 76//76
f 38//38 118//118 111//111
f 76//76 39//39 57//57
f 75//75 57//57 39//39
f 75//75 39//39 76//76
f 40//40 78//78 41//41
f 41//41 78//78 79//79
f 40//40 81//81 78//78
f 79//79 80//80 58//58
f 58//58 80//80 42//42
f 43//43 80//80 91//91
f 43//43 42//42 80//80
f 85//85 83//83 44//44
f 45//45 83//83 88//88
f 45//45 44//44 83//83
f 85//85 46//46 47//47
f 46//46 85//85 48//48
f 49//49 47//47 46//46
f 48//48 49//49 46//46
f 50//50 88//88 87//87
f 50//50 87//87 86//86
f 105//105 51//51 66//66
f 65//65 105//105 66//66
f 68//68 66//66 51//51
f 52//52 92//92 91//91
f 93//93 92//92 53//53
f 54//54 92//92 52//52
f 92//92 54//54 55//55
f 53//53 92//92 70//70
f 55//55 70//70 92//92
f 97//97 75//75 56//56
f 96//96 97//97 56//56
f 75//75 97//97 57//57
f 95//95 57//57 97//97
f 58//58 100//100 99//99
f 100//100 58//58 59//59
f 60//60 100//100 59//59
f 61//61 100//100 60//60
f 61//61 70//70 100//100
f 63//63 116//116 62//62
f 100//100 62//62 116//116
f 63//63 62//62 70//70
f 62//62 100//100 70//70
f 109//109 73//73 74//74
f 101//101 107//107 108//108
f 101//101 108//108 74//74
f 108//108 109//109 74//74
f 65//65 64//64 69//69
f 68//68 69//69 64//64
f 66//66 64//64 65//65
f 68//68 64//64 66//66
f 101//101 74//74 67//67
f 68//68 101//101 67//67
f 68//68 67//67 69//69
f 74//74 70//70 67//67
f 69//69 67//67 70//70
f 104//104 125//125 101//101
f 102//102 120//120 118//118
f 72//72 71//71 99//99
f 114//114 99//99 71//71
f 116//116 71//71 72//72
f 114//114 71//71 116//116
f 73//73 109//109 117//117
f 117//117 116//116 74//74
f 73//73 117//117 74//74
f 75//75 112//112 118//118
f 112//112 75//75 76//76
f 111//111 112//112 76//76
f 78//78 77//77 79//79
f 77//77 80//80 79//79
f 80//80 77//77 91//91
f 81//81 91//91 77//77
f 78//78 81//81 77//77
f 85//85 88//88 82//82
f 83//83 82//82 88//88
f 85//85 82//82 83//83
f 84//84 85//85 86//86
f 87//87 84//84 86//86
f 85//85 84//84 88//88
f 87//87 88//88 84//84
f 90//90 91//91 89//89
f 92//92 89//89 91//91
f 93//93 90//90 89//89
f 89//89 92//92 93//93
f 95//95 94//94 96//96
f 94//94 97//97 96//96
f 97//97 94//94 95//95
f 116//116 99//99 98//98
f 100//100 98//98 99//99
f 98//98 100//100 116//116
f 101//101 106//106 107//107
f 125//125 106//106 101//101
f 102//102 113//113 120//120
f 115//115 113//113 103//103
f 102//102 103//103 113//113
f 122//122 125//125 104//104
f 118//118 122//122 105//105
f 122//122 104//104 105//105
f 106//106 125//125 124//124
f 106//106 124//124 107//107
f 108//108 107//107 124//124
f 108//108 124//124 109//109
f 117//117 109//109 124//124
f 111//111 118//118 110//110
f 112//112 110//110 118//118
f 110//110 112//112 111//111
f 113//113 119//119 120//120
f 114//114 119//119 115//115
f 113//113 115//115 119//119
f 114//114 116//116 119//119
f 117//117 119//119 116//116
f 124//124 119//119 117//117
f 120//120 121//121 118//118
f 122//122 118//118 121//121
f 119//119 126//126 120//120
f 124//124 126//126 119//119
f 120//120 126//126 121//121
f 121//121 126//126 122//122
f 122//122 126//126 125//125
f 124//124 125//125 123//123
f 126//126 123//123 125//125
f 123//123 126//126 124//124
# 248 faces, 0 coords texture

# End of File
