####
#
# OBJ File Generated by Meshlab
#
####
# Object WheelB.obj
#
# Vertices: 84
# Faces: 164
#
####
vn 5.453976 0.000469 2.878798
v -0.218900 1.106100 0.200700
vn 2.542778 -1.094847 3.529273
v -0.219000 1.102000 0.200700
vn 3.475056 3.077876 -3.478838
v -0.224000 1.202600 0.014700
vn 3.515104 -2.554389 2.660166
v -0.219300 1.051800 0.171200
vn 3.811550 1.733657 4.483173
v -0.222800 1.158600 0.187700
vn 5.996752 1.666876 -0.857749
v -0.219200 1.186700 0.009300
vn -0.520133 -2.477661 5.593346
v -0.223000 1.083000 0.193200
vn -0.294272 -2.782608 5.486693
v -0.223300 1.077300 0.190400
vn 1.659819 -2.678042 3.965508
v -0.222000 1.063700 0.183300
vn -6.215271 -0.138257 -0.905066
v -0.236900 1.170100 0.072700
vn -5.770165 -2.137573 0.585600
v -0.236200 1.032500 0.144600
vn -6.101309 -1.264880 -0.002984
v -0.244800 1.065600 0.159100
vn -6.186380 -0.292399 -1.049187
v -0.234200 1.150100 0.059600
vn 3.449863 -3.488142 2.258881
v -0.223100 1.028100 0.148100
vn -1.028796 -3.716041 1.970447
v -0.231200 1.022900 0.145400
vn 1.258767 -4.180688 -0.023569
v -0.219300 1.015600 0.092700
vn -1.626698 -3.756936 0.855086
v -0.231900 1.021400 0.140700
vn -3.014737 0.914394 4.630856
v -0.246000 1.133700 0.197300
vn 5.306040 3.137636 0.661881
v -0.210800 1.184000 0.145400
vn -0.963997 2.313473 4.028339
v -0.239100 1.167700 0.192900
vn -4.169981 -2.679953 3.827245
v -0.243500 1.071600 0.180300
vn -3.544184 -2.815804 2.882791
v -0.241100 1.059800 0.174600
vn -6.221422 0.327141 -0.169777
v -0.249500 1.128100 0.170900
vn -6.216786 -0.390804 -0.725983
v -0.248400 1.091300 0.167600
vn -5.495440 1.154388 1.990923
v -0.246000 1.146000 0.193000
vn -6.121229 -1.019485 -0.544058
v -0.242800 1.057800 0.146300
vn -6.068573 -0.505460 -1.465300
v -0.231100 1.113600 0.053900
vn 5.647560 -2.648207 0.646347
v -0.204300 1.033100 0.048300
vn 0.928200 -3.483642 -0.523977
v -0.216900 1.016700 0.083200
vn -5.849293 -0.731214 -2.154769
v -0.222700 1.122800 0.025000
vn -5.956685 -0.767026 -1.794301
v -0.229800 1.097900 0.055000
vn -5.834200 -0.999546 -2.107265
v -0.229400 1.084700 0.060100
vn 5.919906 -0.699460 -0.922805
v -0.199700 1.048100 0.039200
vn 5.944998 -1.501009 0.786592
v -0.202400 1.040900 0.059200
vn 6.269059 -0.214746 0.094701
v -0.198700 1.075400 0.037700
vn 5.964003 0.388719 1.083409
v -0.204200 1.163900 0.158000
vn -3.569099 -1.329539 4.330975
v -0.248800 1.110100 0.194800
vn 2.153738 -1.373219 3.468243
v -0.219500 1.094000 0.198200
vn 1.713047 -0.075010 4.243581
v -0.220900 1.112100 0.203400
vn -3.481541 -0.084609 3.186504
v -0.248600 1.119500 0.197700
vn -2.604483 -2.587263 4.824123
v -0.241800 1.076600 0.185200
vn -4.413740 -1.168013 2.264170
v -0.250300 1.092800 0.187300
vn 4.446429 3.423958 2.538460
v -0.224600 1.191800 0.171100
vn 5.152765 1.856357 1.681284
v -0.205700 1.171800 0.160200
vn 1.087100 3.020057 3.597711
v -0.227300 1.186400 0.179900
vn 2.517095 3.708364 -0.727171
v -0.225300 1.220300 0.033300
vn -1.355459 1.766108 -1.963770
v -0.229900 1.211800 0.019200
vn -6.040139 1.727532 0.002771
v -0.244700 1.164800 0.137900
vn -5.768548 2.278537 -0.371209
v -0.228900 1.217300 0.031100
vn -6.116494 0.818693 -0.255833
v -0.246200 1.159500 0.141100
vn -6.068847 -0.956999 -1.247298
v -0.230200 1.051200 0.079600
vn -6.003236 -0.755749 -1.586853
v -0.230300 1.082200 0.063800
vn -6.152811 -0.713136 -1.023450
v -0.241200 1.056000 0.137800
vn -6.108047 -1.017347 -1.027012
v -0.235900 1.040900 0.118800
vn -5.664687 -2.250364 -0.574980
v -0.232700 1.023700 0.119200
vn -4.189647 -3.554852 -2.573042
v -0.218600 1.026300 0.067100
vn -3.365877 -4.354560 -2.371202
v -0.218400 1.022200 0.073200
vn -3.274382 -3.732615 -0.508528
v -0.228000 1.017500 0.103400
vn 0.786431 0.039022 -2.546088
v -0.214000 1.158100 -0.001800
vn -0.653693 0.441836 -3.028069
v -0.218400 1.171200 -0.001300
vn 0.382482 1.135562 -2.830442
v -0.219700 1.182300 0.001900
vn 5.325054 2.189916 -1.993251
v -0.219500 1.185800 0.005500
vn 6.075165 0.278354 -0.699946
v -0.197600 1.108600 0.033000
vn 6.058631 1.463825 -0.417097
v -0.206000 1.163800 0.058700
vn -5.786065 -1.092621 -2.192123
v -0.219700 1.042500 0.054600
vn -5.255467 -1.671772 -2.831900
v -0.216700 1.058000 0.039000
vn -4.927236 -2.288417 -2.641757
v -0.220100 1.035600 0.059100
vn -5.917816 -1.116066 -1.673304
v -0.229500 1.051400 0.076300
vn -3.935584 -2.102018 -4.076748
v -0.214300 1.060700 0.033800
vn -1.430215 5.631573 1.437803
v -0.229400 1.208600 0.137000
vn -1.732567 3.859142 -1.092800
v -0.227500 1.220300 0.032300
vn 1.963482 4.688716 0.953404
v -0.227100 1.209200 0.135400
vn -4.141506 4.117890 2.190760
v -0.231000 1.198000 0.158000
vn -3.607162 4.108820 1.152030
v -0.231600 1.207200 0.138800
vn 0.285196 3.655434 2.145366
v -0.226900 1.195000 0.170300
vn -5.187403 2.884922 1.027241
v -0.233500 1.202800 0.143400
vn -4.585210 1.985293 2.458973
v -0.241600 1.166000 0.191500
vn -4.985028 -1.268598 -3.271183
v -0.217800 1.101100 0.020500
vn 0.940802 -0.312391 -2.589702
v -0.205600 1.121100 0.002100
vn -1.641779 -2.528581 -5.509056
v -0.208600 1.092600 0.015600
vn -2.459929 -2.053250 -5.050346
v -0.207500 1.106500 0.008900
vn 2.256934 -1.844174 -2.345464
v -0.201400 1.037800 0.039000
vn -2.978554 -2.140189 -4.877570
v -0.210000 1.088800 0.017800
vn 0.710312 -2.372494 -1.598900
v -0.203800 1.032800 0.042000
# 84 vertices, 0 vertices normals

f 14//14 34//34 4//4
f 50//50 25//25 77//77
f 2//2 1//1 39//39
f 1//1 44//44 39//39
f 44//44 64//64 46//46
f 36//36 63//63 64//64
f 36//36 64//64 44//44
f 36//36 2//2 4//4
f 36//36 4//4 34//34
f 36//36 1//1 2//2
f 44//44 1//1 36//36
f 38//38 4//4 2//2
f 38//38 9//9 4//4
f 38//38 2//2 39//39
f 8//8 9//9 38//38
f 38//38 7//7 8//8
f 10//10 47//47 13//13
f 47//47 10//10 50//50
f 46//46 62//62 3//3
f 3//3 47//47 46//46
f 60//60 47//47 61//61
f 61//61 3//3 62//62
f 61//61 47//47 3//3
f 63//63 36//36 35//35
f 4//4 9//9 15//15
f 15//15 14//14 4//4
f 15//15 22//22 17//17
f 9//9 22//22 15//15
f 29//29 34//34 14//14
f 18//18 39//39 20//20
f 20//20 77//77 18//18
f 18//18 77//77 25//25
f 49//49 47//47 50//50
f 44//44 5//5 39//39
f 5//5 44//44 45//45
f 5//5 20//20 39//39
f 5//5 45//45 20//20
f 6//6 62//62 46//46
f 46//46 64//64 6//6
f 6//6 64//64 62//62
f 7//7 41//41 8//8
f 41//41 9//9 8//8
f 41//41 22//22 9//9
f 38//38 41//41 7//7
f 24//24 10//10 13//13
f 24//24 50//50 10//10
f 24//24 12//12 42//42
f 24//24 26//26 12//12
f 11//11 55//55 17//17
f 26//26 55//55 11//11
f 11//11 12//12 26//26
f 11//11 17//17 22//22
f 11//11 22//22 42//42
f 42//42 12//12 11//11
f 54//54 55//55 26//26
f 30//30 47//47 60//60
f 13//13 47//47 27//27
f 47//47 30//30 27//27
f 27//27 30//30 31//31
f 27//27 24//24 13//13
f 27//27 26//26 24//24
f 67//67 69//69 84//84
f 16//16 29//29 14//14
f 16//16 15//15 17//17
f 16//16 14//14 15//15
f 58//58 68//68 67//67
f 16//16 58//58 29//29
f 17//17 55//55 58//58
f 58//58 16//16 17//17
f 39//39 18//18 40//40
f 40//40 18//18 25//25
f 48//48 49//49 50//50
f 19//19 44//44 46//46
f 19//19 46//46 72//72
f 19//19 72//72 44//44
f 75//75 77//77 20//20
f 75//75 20//20 45//45
f 42//42 22//22 21//21
f 21//21 41//41 42//42
f 41//41 21//21 22//22
f 23//23 24//24 42//42
f 50//50 24//24 23//23
f 23//23 42//42 40//40
f 23//23 25//25 50//50
f 23//23 40//40 25//25
f 53//53 54//54 26//26
f 53//53 26//26 27//27
f 66//66 69//69 67//67
f 52//52 27//27 31//31
f 52//52 32//32 68//68
f 32//32 52//52 31//31
f 52//52 53//53 27//27
f 57//57 84//84 29//29
f 29//29 58//58 57//57
f 34//34 29//29 28//28
f 29//29 84//84 28//28
f 28//28 82//82 34//34
f 28//28 84//84 82//82
f 69//69 66//66 78//78
f 78//78 30//30 60//60
f 31//31 30//30 78//78
f 78//78 32//32 31//31
f 78//78 68//68 32//32
f 79//79 33//33 82//82
f 34//34 82//82 33//33
f 63//63 35//35 33//33
f 33//33 79//79 63//63
f 33//33 36//36 34//34
f 33//33 35//35 36//36
f 37//37 38//38 39//39
f 39//39 40//40 37//37
f 37//37 41//41 38//38
f 42//42 41//41 37//37
f 37//37 40//40 42//42
f 43//43 44//44 72//72
f 43//43 72//72 75//75
f 43//43 45//45 44//44
f 43//43 75//75 45//45
f 71//71 72//72 46//46
f 74//74 71//71 49//49
f 46//46 47//47 71//71
f 71//71 47//47 49//49
f 76//76 49//49 48//48
f 76//76 74//74 49//49
f 76//76 48//48 50//50
f 50//50 77//77 76//76
f 51//51 52//52 68//68
f 53//53 52//52 51//51
f 54//54 53//53 51//51
f 55//55 54//54 51//51
f 58//58 51//51 68//68
f 51//51 58//58 55//55
f 67//67 84//84 56//56
f 56//56 84//84 57//57
f 56//56 58//58 67//67
f 56//56 57//57 58//58
f 59//59 78//78 60//60
f 78//78 59//59 79//79
f 60//60 61//61 59//59
f 59//59 61//61 62//62
f 63//63 79//79 59//59
f 59//59 64//64 63//63
f 62//62 64//64 59//59
f 65//65 66//66 67//67
f 65//65 78//78 66//66
f 67//67 68//68 65//65
f 65//65 68//68 78//78
f 69//69 78//78 83//83
f 83//83 84//84 69//69
f 72//72 71//71 70//70
f 70//70 71//71 74//74
f 70//70 75//75 72//72
f 70//70 74//74 75//75
f 75//75 74//74 73//73
f 76//76 73//73 74//74
f 77//77 75//75 73//73
f 73//73 76//76 77//77
f 81//81 78//78 79//79
f 81//81 83//83 78//78
f 81//81 79//79 82//82
f 80//80 81//81 82//82
f 80//80 83//83 81//81
f 82//82 84//84 80//80
f 80//80 84//84 83//83
# 164 faces, 0 coords texture

# End of File
