####
#
# OBJ File Generated by Meshlab
#
####
# Object Base.obj
#
# Vertices: 76
# Faces: 148
#
####
vn 0.020760 -2.036361 5.839107
v -0.018000 -0.127400 0.168600
vn 3.536600 -0.127481 4.852705
v 0.018700 -0.012000 0.184900
vn 2.459171 -1.498944 5.576248
v -0.004200 -0.034600 0.190500
vn 5.144758 -1.562770 3.249905
v 0.028000 -0.054700 0.165000
vn 3.896317 -1.406900 4.395217
v 0.023800 -0.054600 0.171600
vn -5.384890 2.644551 1.791276
v -0.121300 -0.004500 0.132700
vn -1.402329 -2.313896 5.608441
v -0.035300 -0.158300 0.154000
vn -5.646701 0.248951 1.359244
v -0.124300 -0.008700 0.129100
vn -6.088539 -0.683638 -0.377871
v -0.124300 -0.018100 0.093700
vn 6.086579 -1.126240 0.957195
v 0.110600 -0.010100 -0.027700
vn 3.428242 -2.899342 -4.395296
v 0.081600 -0.040800 -0.103800
vn 5.369805 -2.118224 -2.126838
v 0.111200 -0.010500 -0.079500
vn 4.206481 -3.051858 -3.186823
v 0.082000 -0.043500 -0.101700
vn -1.612267 -4.260602 -3.079485
v -0.034100 -0.114600 -0.019600
vn -3.506828 -3.089816 -4.117195
v 0.006600 -0.057900 -0.109800
vn 5.431396 -1.823215 2.518830
v 0.025900 -0.137700 0.125800
vn 4.087081 1.711513 1.792425
v 0.075000 0.013900 0.123100
vn 4.211309 -3.552896 0.176229
v 0.033100 -0.149900 0.096000
vn -1.157709 5.860588 1.501116
v -0.047700 0.002600 0.185000
vn -3.032893 3.925587 1.511731
v -0.116500 -0.001500 0.142500
vn -2.953406 3.155305 2.992270
v -0.108800 -0.003400 0.155500
vn -2.205270 4.740445 3.221940
v -0.080000 -0.002500 0.174000
vn 0.689021 2.197088 2.991814
v -0.014600 0.003700 0.205200
vn 2.206965 2.309034 1.878885
v 0.063900 0.016400 0.141500
vn -4.270898 -3.298438 -2.968432
v -0.080100 -0.133800 0.055100
vn -2.120468 -4.259667 -2.907235
v -0.049100 -0.127500 0.008400
vn -4.934518 -2.684306 -1.755469
v -0.090900 -0.140200 0.079000
vn -3.456150 -3.613887 1.563687
v -0.082000 -0.165300 0.111100
vn -5.264597 -2.485318 0.281382
v -0.087700 -0.157200 0.104400
vn -2.524389 -4.559422 -1.178614
v -0.081300 -0.166000 0.103700
vn 1.024598 -2.726850 1.328189
v -0.001100 -0.185000 0.147100
vn -2.126578 -3.691815 3.320277
v -0.044700 -0.170900 0.145700
vn -4.052647 -2.581858 3.963502
v -0.059200 -0.161600 0.138600
vn -4.100529 -1.681014 4.437786
v -0.107800 -0.017200 0.155100
vn -4.815493 -0.130631 2.935850
v -0.117900 -0.011800 0.147400
vn -4.272520 4.180386 -1.520510
v -0.051500 0.014700 -0.072200
vn -1.603861 3.133070 -2.136049
v -0.008900 0.032200 -0.143500
vn -3.889085 2.399552 0.133578
v -0.125900 -0.003800 0.116400
vn -5.574752 0.348924 -2.406320
v -0.098700 -0.020000 -0.002100
vn -5.508831 -1.313867 -2.335765
v -0.103100 -0.030000 0.010700
vn -5.321311 0.978087 -1.296986
v -0.119600 -0.017200 0.056600
vn -4.836641 3.127971 -1.758693
v -0.087800 -0.003400 -0.016500
vn 6.116260 -0.350794 0.475992
v 0.112500 -0.007600 -0.038300
vn 5.718389 0.795513 0.062092
v 0.113600 -0.005400 -0.053700
vn 6.128833 -0.878834 0.742332
v 0.112300 -0.008000 -0.037000
vn 4.146317 -3.274550 -0.583173
v 0.094300 -0.076100 -0.028100
vn 5.837539 -0.577162 1.629208
v 0.100300 0.004300 0.046600
vn -5.059541 0.186181 -3.242614
v -0.030900 0.012400 -0.119700
vn -5.001757 1.474010 -3.059561
v -0.021000 0.019100 -0.133900
vn -4.803105 -0.134992 -2.873558
v -0.075700 -0.011400 -0.050900
vn -4.418161 -2.287478 -3.740634
v -0.033300 -0.001700 -0.110600
vn -3.401571 -1.681224 5.007827
v -0.085400 -0.018700 0.171700
vn -3.464564 0.505141 4.591509
v -0.099200 -0.008800 0.165600
vn -0.840392 0.804690 4.115788
v -0.034400 -0.007800 0.209700
vn -3.633031 -1.986497 4.625108
v -0.056500 -0.154100 0.145100
vn 0.004452 -2.673955 -5.662509
v 0.019600 -0.037500 -0.120900
vn -0.982809 -3.711784 -4.027363
v 0.008800 -0.059700 -0.110100
vn 0.862012 -3.269344 -5.201552
v 0.047400 -0.049800 -0.112600
vn 2.144927 -3.897662 -3.389452
v 0.068900 -0.057700 -0.102500
vn 1.641876 -1.805537 -5.620810
v 0.071400 0.007000 -0.135900
vn 2.724734 -1.847831 -5.161795
v 0.085700 0.006300 -0.130100
vn 0.054050 -2.230781 -5.866651
v 0.032400 -0.003700 -0.136100
vn 0.130148 -2.491970 -5.737745
v 0.031100 -0.006300 -0.135100
vn -2.661849 -0.821936 -4.375908
v -0.015100 0.016800 -0.142200
vn -0.093794 -2.049606 -5.938483
v 0.031700 -0.000800 -0.137100
vn 0.969315 -0.051425 -5.532978
v 0.052000 0.014300 -0.142500
vn 0.005197 2.003970 -2.797452
v -0.001000 0.031200 -0.147400
vn 2.874279 2.529152 -2.269883
v 0.088400 0.012100 -0.129200
vn 2.214797 1.449191 -4.984171
v 0.078100 0.012700 -0.134400
vn 2.723808 0.419931 -5.370449
v 0.085500 0.011200 -0.131100
vn 1.714145 3.902218 -3.410656
v 0.060900 0.018800 -0.138100
vn 3.520509 -0.398681 -5.086759
v 0.087300 0.010900 -0.130000
vn 1.444002 6.009784 -0.825705
v 0.059800 0.019300 -0.137200
vn 3.409750 3.027885 0.575132
v 0.102100 0.015400 0.035700
vn 4.851267 1.005916 -0.859285
v 0.113700 -0.006000 -0.076300
vn 4.298611 -0.905034 -3.342978
v 0.092500 0.003200 -0.124300
# 76 vertices, 0 vertices normals

f 54//54 1//1 31//31
f 59//59 46//46 31//31
f 5//5 17//17 24//24
f 26//26 31//31 30//30
f 31//31 14//14 59//59
f 26//26 14//14 31//31
f 1//1 7//7 31//31
f 54//54 7//7 1//1
f 21//21 53//53 54//54
f 34//34 53//53 35//35
f 53//53 21//21 35//35
f 41//41 9//9 38//38
f 27//27 9//9 41//41
f 59//59 13//13 46//46
f 5//5 3//3 31//31
f 31//31 3//3 54//54
f 3//3 23//23 54//54
f 23//23 2//2 24//24
f 5//5 24//24 2//2
f 3//3 2//2 23//23
f 3//3 5//5 2//2
f 17//17 18//18 47//47
f 46//46 18//18 31//31
f 46//46 47//47 18//18
f 31//31 4//4 5//5
f 17//17 4//4 31//31
f 17//17 5//5 4//4
f 6//6 38//38 8//8
f 9//9 8//8 38//38
f 23//23 22//22 54//54
f 54//54 22//22 21//21
f 21//21 20//20 35//35
f 20//20 8//8 35//35
f 8//8 20//20 6//6
f 6//6 20//20 38//38
f 20//20 37//37 38//38
f 7//7 32//32 31//31
f 32//32 7//7 54//54
f 8//8 29//29 35//35
f 30//30 29//29 27//27
f 27//27 29//29 9//9
f 9//9 29//29 8//8
f 57//57 14//14 15//15
f 14//14 57//57 59//59
f 64//64 57//57 15//15
f 38//38 42//42 41//41
f 41//41 40//40 27//27
f 46//46 75//75 44//44
f 46//46 10//10 47//47
f 47//47 10//10 45//45
f 45//45 10//10 46//46
f 76//76 11//11 59//59
f 11//11 13//13 59//59
f 13//13 11//11 76//76
f 46//46 12//12 75//75
f 13//13 12//12 46//46
f 75//75 12//12 76//76
f 12//12 13//13 76//76
f 47//47 74//74 17//17
f 17//17 74//74 24//24
f 44//44 75//75 74//74
f 24//24 74//74 37//37
f 64//64 49//49 37//37
f 42//42 37//37 49//49
f 42//42 49//49 50//50
f 14//14 51//51 15//15
f 51//51 64//64 15//15
f 51//51 14//14 26//26
f 50//50 51//51 26//26
f 67//67 64//64 37//37
f 74//74 67//67 37//37
f 31//31 16//16 17//17
f 18//18 16//16 31//31
f 18//18 17//17 16//16
f 20//20 21//21 19//19
f 19//19 22//22 23//23
f 22//22 19//19 21//21
f 20//20 19//19 37//37
f 37//37 19//19 24//24
f 23//23 24//24 19//19
f 26//26 25//25 50//50
f 30//30 25//25 26//26
f 30//30 27//27 25//25
f 40//40 25//25 27//27
f 40//40 50//50 25//25
f 28//28 32//32 33//33
f 29//29 30//30 28//28
f 30//30 31//31 28//28
f 32//32 28//28 31//31
f 33//33 35//35 28//28
f 29//29 28//28 35//35
f 32//32 54//54 55//55
f 32//32 55//55 33//33
f 53//53 34//34 55//55
f 35//35 55//55 34//34
f 33//33 55//55 35//35
f 57//57 58//58 59//59
f 60//60 59//59 58//58
f 60//60 58//58 66//66
f 58//58 63//63 66//66
f 37//37 36//36 38//38
f 38//38 36//36 42//42
f 42//42 36//36 37//37
f 41//41 39//39 40//40
f 40//40 39//39 50//50
f 42//42 39//39 41//41
f 50//50 39//39 42//42
f 74//74 43//43 44//44
f 45//45 46//46 43//43
f 44//44 43//43 46//46
f 45//45 43//43 47//47
f 43//43 74//74 47//47
f 49//49 48//48 50//50
f 64//64 48//48 49//49
f 51//51 50//50 48//48
f 51//51 48//48 64//64
f 53//53 52//52 54//54
f 52//52 55//55 54//54
f 55//55 52//52 53//53
f 64//64 56//56 57//57
f 63//63 56//56 64//64
f 57//57 56//56 58//58
f 58//58 56//56 63//63
f 67//67 65//65 64//64
f 67//67 66//66 65//65
f 59//59 61//61 76//76
f 60//60 61//61 59//59
f 76//76 61//61 72//72
f 72//72 61//61 70//70
f 66//66 69//69 60//60
f 69//69 61//61 60//60
f 61//61 69//69 70//70
f 62//62 63//63 64//64
f 65//65 62//62 64//64
f 63//63 62//62 66//66
f 65//65 66//66 62//62
f 67//67 71//71 66//66
f 71//71 69//69 66//66
f 74//74 73//73 67//67
f 71//71 67//67 73//73
f 69//69 68//68 70//70
f 71//71 68//68 69//69
f 72//72 70//70 68//68
f 73//73 68//68 71//71
f 74//74 68//68 73//73
f 74//74 75//75 68//68
f 76//76 68//68 75//75
f 72//72 68//68 76//76
# 148 faces, 0 coords texture

# End of File
