####
#
# OBJ File Generated by Meshlab
#
####
# Object BrushStick.obj
#
# Vertices: 25
# Faces: 46
#
####
vn 4.398612 -1.801928 -2.281101
v 0.379300 -0.402300 0.011200
vn 0.124709 -3.075159 -3.334096
v 0.361300 -0.412300 0.005700
vn 4.157528 -1.950139 0.215132
v 0.379600 -0.403100 0.013100
vn 4.561717 -0.577012 -3.800348
v 0.375800 -0.396900 0.005100
vn 3.065269 4.040465 3.589303
v 0.313600 -0.089800 0.028900
vn 3.321636 1.157834 0.256027
v 0.366300 -0.134100 0.028300
vn -3.826420 -0.798792 -4.223614
v 0.321500 -0.378600 0.018800
vn -0.555652 -1.545159 -5.337997
v 0.365200 -0.401200 0.000600
vn 1.671307 -0.815395 -4.778514
v 0.370100 -0.396900 -0.000200
vn 0.765661 1.161146 -5.777282
v 0.349500 -0.119400 0.017300
vn 2.682535 2.497448 -1.814682
v 0.352900 -0.117800 0.018800
vn 0.424691 -2.099962 4.928528
v 0.342400 -0.384300 0.062000
vn 2.755702 -0.477026 4.558530
v 0.351000 -0.372800 0.062000
vn -2.531713 -1.568601 4.491336
v 0.336300 -0.382800 0.061200
vn 2.641058 -3.324041 1.879851
v 0.362100 -0.419200 0.030700
vn -0.709123 -2.668580 -0.084819
v 0.346300 -0.427500 0.025800
vn -6.242845 -0.536314 0.119569
v 0.320200 -0.384600 0.031800
vn -5.086487 -1.411356 -2.012176
v 0.320000 -0.380900 0.021800
vn -4.256328 -2.180994 1.254824
v 0.321300 -0.394300 0.038800
vn -1.351885 1.945486 -0.330325
v 0.308400 -0.086900 0.027200
vn -1.161567 1.703691 -4.500518
v 0.311400 -0.091300 0.023800
vn -5.002571 0.700612 -1.085109
v 0.306500 -0.094500 0.028700
vn 0.878940 3.504360 0.064127
v 0.311300 -0.086900 0.027500
vn -3.574653 0.782837 2.866807
v 0.308700 -0.130700 0.064700
vn 0.414701 1.680867 4.353483
v 0.313400 -0.129500 0.066300
# 25 vertices, 0 vertices normals

f 6//6 13//13 3//3
f 13//13 6//6 25//25
f 9//9 2//2 8//8
f 13//13 15//15 3//3
f 2//2 3//3 15//15
f 2//2 15//15 16//16
f 2//2 7//7 8//8
f 16//16 7//7 2//2
f 6//6 4//4 9//9
f 2//2 1//1 3//3
f 9//9 1//1 2//2
f 4//4 1//1 9//9
f 3//3 1//1 6//6
f 6//6 1//1 4//4
f 9//9 11//11 6//6
f 11//11 9//9 10//10
f 11//11 23//23 6//6
f 24//24 14//14 25//25
f 14//14 24//24 19//19
f 19//19 16//16 14//14
f 7//7 18//18 22//22
f 19//19 18//18 16//16
f 18//18 7//7 16//16
f 6//6 5//5 25//25
f 5//5 23//23 25//25
f 23//23 5//5 6//6
f 7//7 22//22 21//21
f 7//7 21//21 8//8
f 8//8 21//21 9//9
f 9//9 21//21 10//10
f 21//21 11//11 10//10
f 11//11 21//21 23//23
f 13//13 25//25 12//12
f 14//14 12//12 25//25
f 13//13 12//12 15//15
f 15//15 12//12 16//16
f 14//14 16//16 12//12
f 22//22 17//17 24//24
f 18//18 17//17 22//22
f 24//24 17//17 19//19
f 17//17 18//18 19//19
f 21//21 22//22 20//20
f 21//21 20//20 23//23
f 24//24 20//20 22//22
f 25//25 20//20 24//24
f 23//23 20//20 25//25
# 46 faces, 0 coords texture

# End of File
