####
#
# OBJ File Generated by Meshlab
#
####
# Object BrushBase.obj
#
# Vertices: 55
# Faces: 106
#
####
vn 3.973956 0.527779 2.186241
v 0.394700 -0.018500 0.110000
vn 1.355516 3.507092 3.742371
v 0.273900 0.026900 0.124600
vn 1.735734 1.133087 3.171807
v 0.391400 -0.016700 0.113200
vn 5.329556 -2.913857 0.360113
v 0.379400 -0.116400 0.046100
vn 2.088009 -2.611666 2.251416
v 0.377000 -0.116100 0.073800
vn -2.864455 -0.076297 -5.550016
v 0.293500 -0.020000 0.002900
vn -2.282596 0.539955 -5.801199
v 0.313100 -0.010700 -0.005600
vn -5.299682 -2.410300 -0.675455
v 0.267900 -0.092200 0.040600
vn 0.914613 5.608787 -2.499855
v 0.357800 -0.001700 0.006100
vn -5.555224 -1.069270 -2.578896
v 0.242100 0.015000 0.035900
vn -1.781014 2.194556 -2.145252
v 0.244300 0.021700 0.030100
vn -4.676595 1.943344 -1.985937
v 0.241600 0.021400 0.035300
vn -2.720898 1.640296 1.611021
v 0.242300 0.027100 0.103500
vn -5.176684 3.175794 0.257607
v 0.235100 0.019200 0.070300
vn -5.217231 0.247771 -0.042077
v 0.232600 0.014500 0.063300
vn -5.022160 -2.870473 1.810075
v 0.269700 -0.088600 0.061400
vn -2.595570 4.193848 -0.853088
v 0.240200 0.023600 0.045100
vn -1.937278 5.532949 -0.145029
v 0.242900 0.027500 0.099900
vn -3.440933 -3.139404 3.496994
v 0.277900 -0.087300 0.077800
vn -1.079426 0.085473 -5.944909
v 0.315500 -0.018400 -0.007000
vn 0.841498 4.307311 -4.068940
v 0.346300 -0.003900 -0.000900
vn -0.343073 2.642769 -4.379180
v 0.316300 -0.003300 -0.005900
vn 0.556754 0.404950 -6.239715
v 0.327700 -0.012900 -0.005800
vn -0.830036 -2.541329 5.685292
v 0.289300 -0.085800 0.083700
vn -1.620856 -3.324905 4.727016
v 0.286300 -0.086600 0.082900
vn -1.617983 -0.063535 4.617134
v 0.268200 0.021300 0.126800
vn -0.484708 -2.803501 5.553652
v 0.293600 -0.085400 0.084500
vn 2.179308 -2.954937 -1.596310
v 0.367600 -0.133300 0.006400
vn 0.403058 -0.973426 -6.137780
v 0.343400 -0.114700 -0.004800
vn 1.773147 -1.587728 -5.499558
v 0.359200 -0.120900 -0.001800
vn 2.203149 -0.376055 -5.379275
v 0.362300 -0.096200 -0.004900
vn 0.076055 -0.193247 -6.277873
v 0.333700 -0.111100 -0.005200
vn 3.695566 2.506784 -0.348949
v 0.398000 -0.005000 0.050800
vn 5.550982 0.398658 -2.266668
v 0.395600 -0.008100 0.038800
vn 5.097190 -0.928594 -2.532817
v 0.380100 -0.101100 0.012000
vn -0.470942 3.604489 2.344037
v 0.269300 0.028800 0.123900
vn 3.870220 2.419284 0.424377
v 0.398400 -0.006100 0.067000
vn 5.838675 -1.895129 -0.239097
v 0.380700 -0.113400 0.040300
vn 3.384403 3.780081 -2.857964
v 0.374300 -0.005400 0.008300
vn 2.546710 1.417021 -4.157662
v 0.371200 -0.013200 -0.001600
vn 1.610508 5.063491 -2.452867
v 0.368600 -0.002900 0.007600
vn 3.585481 2.981316 -1.212434
v 0.396000 -0.005300 0.040900
vn -3.741819 -1.761467 -4.669434
v 0.301400 -0.124500 0.011700
vn -2.560750 -3.587853 0.225479
v 0.296900 -0.137800 0.029000
vn -4.207339 -1.413358 -3.786512
v 0.277100 -0.090200 0.018600
vn 0.011467 -4.256043 -4.339458
v 0.348000 -0.134000 0.003000
vn 0.632344 -2.947447 -5.441236
v 0.349600 -0.132400 0.002100
vn -1.066221 -4.815035 0.432549
v 0.299300 -0.138700 0.028600
vn 0.593181 -4.819399 -2.418835
v 0.351400 -0.135000 0.004200
vn -2.011083 -3.164774 -4.777259
v 0.320200 -0.127600 0.001400
vn -2.646435 -3.394624 -3.565455
v 0.305300 -0.131200 0.011200
vn -2.565863 -1.301518 -5.445206
v 0.320700 -0.118300 -0.002600
vn -0.896709 -1.334923 -5.709501
v 0.326900 -0.118200 -0.005000
vn -0.715994 -2.999605 -5.335809
v 0.329000 -0.128400 -0.000500
vn -0.471819 -4.164529 -3.987880
v 0.332100 -0.131600 0.001100
# 55 vertices, 0 vertices normals

f 28//28 5//5 48//48
f 11//11 45//45 10//10
f 36//36 41//41 11//11
f 5//5 3//3 26//26
f 35//35 38//38 28//28
f 5//5 44//44 48//48
f 25//25 44//44 5//5
f 22//22 20//20 7//7
f 22//22 7//7 11//11
f 41//41 9//9 11//11
f 31//31 35//35 28//28
f 31//31 32//32 20//20
f 5//5 26//26 27//27
f 25//25 5//5 27//27
f 3//3 1//1 37//37
f 5//5 1//1 3//3
f 38//38 37//37 1//1
f 38//38 1//1 5//5
f 36//36 26//26 2//2
f 3//3 2//2 26//26
f 36//36 2//2 37//37
f 2//2 3//3 37//37
f 28//28 4//4 5//5
f 38//38 4//4 28//28
f 5//5 4//4 38//38
f 32//32 53//53 20//20
f 53//53 52//52 20//20
f 52//52 6//6 20//20
f 7//7 20//20 6//6
f 45//45 6//6 52//52
f 7//7 6//6 11//11
f 6//6 45//45 11//11
f 44//44 8//8 45//45
f 8//8 44//44 16//16
f 10//10 8//8 15//15
f 45//45 8//8 10//10
f 8//8 16//16 15//15
f 52//52 43//43 45//45
f 44//44 19//19 16//16
f 19//19 44//44 25//25
f 25//25 26//26 19//19
f 41//41 21//21 9//9
f 11//11 21//21 22//22
f 9//9 21//21 11//11
f 10//10 15//15 12//12
f 10//10 12//12 11//11
f 11//11 17//17 36//36
f 18//18 36//36 17//17
f 12//12 17//17 11//11
f 14//14 17//17 15//15
f 12//12 15//15 17//17
f 13//13 14//14 15//15
f 16//16 13//13 15//15
f 13//13 17//17 14//14
f 17//17 13//13 18//18
f 19//19 13//13 16//16
f 13//13 19//19 26//26
f 36//36 13//13 26//26
f 18//18 13//13 36//36
f 22//22 23//23 20//20
f 23//23 31//31 20//20
f 31//31 40//40 35//35
f 34//34 35//35 40//40
f 40//40 21//21 41//41
f 21//21 40//40 22//22
f 23//23 40//40 31//31
f 23//23 22//22 40//40
f 47//47 30//30 28//28
f 28//28 30//30 31//31
f 53//53 30//30 47//47
f 36//36 42//42 41//41
f 40//40 42//42 34//34
f 25//25 24//24 26//26
f 27//27 26//26 24//24
f 27//27 24//24 25//25
f 48//48 49//49 28//28
f 28//28 49//49 47//47
f 49//49 46//46 47//47
f 53//53 47//47 54//54
f 30//30 29//29 31//31
f 29//29 30//30 53//53
f 31//31 29//29 32//32
f 53//53 32//32 29//29
f 42//42 33//33 34//34
f 34//34 33//33 35//35
f 33//33 36//36 37//37
f 33//33 42//42 36//36
f 38//38 33//33 37//37
f 35//35 33//33 38//38
f 40//40 41//41 39//39
f 42//42 39//39 41//41
f 40//40 39//39 42//42
f 43//43 52//52 51//51
f 51//51 44//44 45//45
f 43//43 51//51 45//45
f 44//44 51//51 48//48
f 46//46 55//55 47//47
f 54//54 47//47 55//55
f 51//51 55//55 48//48
f 49//49 48//48 55//55
f 49//49 55//55 46//46
f 51//51 52//52 50//50
f 53//53 50//50 52//52
f 54//54 50//50 53//53
f 55//55 50//50 54//54
f 51//51 50//50 55//55
# 106 faces, 0 coords texture

# End of File
