####
#
# OBJ File Generated by Meshlab
#
####
# Object Pipe1.obj
#
# Vertices: 62
# Faces: 120
#
####
vn -3.753996 -4.549950 2.071182
v -0.000100 -0.120400 -0.048000
vn -0.208345 -3.813881 4.667474
v 0.038300 -0.100800 -0.015700
vn -1.782831 -4.270828 3.589047
v 0.011000 -0.125300 -0.041600
vn -2.710141 -5.645385 0.404047
v 0.074500 -0.226600 -0.191000
vn -0.854998 -4.387315 1.883122
v 0.072900 -0.221700 -0.147700
vn -5.436186 -2.916646 -0.768017
v 0.049100 -0.200200 -0.178100
vn -3.915561 -0.881863 1.401295
v -0.023100 -0.094500 -0.033900
vn 4.575297 -1.760358 3.274541
v 0.106200 -0.078700 -0.030100
vn 2.997078 -3.690423 4.064538
v 0.080300 -0.066800 0.002000
vn 4.797642 -1.433058 3.412236
v 0.099200 -0.064600 -0.013800
vn -2.519233 2.860832 -4.985917
v 0.028400 -0.097000 -0.170400
vn 4.217581 -4.113492 1.758411
v 0.138900 -0.164200 -0.137300
vn 2.465830 -4.652901 2.803735
v 0.081000 -0.218500 -0.147600
vn 3.355911 -4.928377 1.542349
v 0.084900 -0.218600 -0.154400
vn 5.543076 0.840429 -1.604839
v 0.143500 -0.142500 -0.167400
vn 4.912861 -1.803674 -0.789988
v 0.144800 -0.163900 -0.163700
vn 4.256431 -1.122486 1.626547
v 0.146300 -0.150300 -0.125200
vn 4.003716 3.889891 -0.062575
v 0.088600 0.001400 -0.080600
vn 5.291138 1.725013 2.081320
v 0.093500 -0.033100 -0.002400
vn 5.205035 -0.148260 3.094163
v 0.094600 -0.044200 -0.002000
vn -0.775012 1.558953 2.597059
v 0.062500 -0.014400 0.032900
vn -4.064821 4.738763 0.696277
v 0.001100 -0.050700 -0.072800
vn -4.920840 1.855765 0.007601
v -0.019700 -0.071800 -0.054900
vn -3.312433 -0.494829 3.397228
v -0.019800 -0.092600 -0.029400
vn -1.979464 -2.058217 5.532989
v 0.065300 -0.048500 0.023800
vn 2.830871 4.426600 2.165615
v 0.068400 -0.011800 0.023300
vn 0.962701 3.670431 0.625566
v 0.080500 0.004800 -0.030000
vn -4.380422 2.975331 -2.649496
v 0.006600 -0.051400 -0.127500
vn -2.177292 3.804421 -2.550218
v 0.022800 -0.032900 -0.130000
vn -5.157843 1.580034 -2.229264
v 0.002800 -0.057000 -0.126000
vn -4.502700 4.031096 -0.340056
v -0.001500 -0.050700 -0.088500
vn 1.546194 3.965127 -4.600760
v 0.092400 -0.070000 -0.155400
vn 3.610671 3.541240 -3.721601
v 0.110000 -0.085700 -0.157100
vn 1.051760 3.746824 -1.409492
v 0.084900 0.002500 -0.095100
vn 4.457787 1.930114 -2.559059
v 0.139400 -0.132900 -0.173400
vn 3.333729 3.592528 -3.909109
v 0.102500 -0.076500 -0.155500
vn 5.135247 -1.881847 -3.092528
v 0.134400 -0.174300 -0.177200
vn 4.925008 -1.043153 -3.546295
v 0.131000 -0.171100 -0.184700
vn 4.843309 -2.650311 -1.405588
v 0.138600 -0.171200 -0.172100
vn 4.157446 -3.336124 -3.022806
v 0.087600 -0.224200 -0.199400
vn 3.776202 -2.967685 -3.929449
v 0.090900 -0.177200 -0.233100
vn 0.496925 -3.303046 -1.348053
v 0.082800 -0.230900 -0.198200
vn 4.719357 -3.031400 -2.139100
v 0.131100 -0.178500 -0.180100
vn -3.272497 -3.308242 -1.860621
v 0.063200 -0.221100 -0.195200
vn -5.339312 -1.339689 -2.919711
v 0.033000 -0.153500 -0.175300
vn -5.467299 -0.950169 -2.522057
v 0.018700 -0.115500 -0.166500
vn -5.418648 -1.800434 -2.257049
v 0.046900 -0.193000 -0.182000
vn -4.604115 -1.713415 -3.674654
v 0.062000 -0.215800 -0.196500
vn -4.598519 -0.692231 -4.223207
v 0.053400 -0.170300 -0.197400
vn -3.898545 -1.271572 -4.610444
v 0.082800 -0.180400 -0.227300
vn -3.889902 -1.612416 -4.493173
v 0.070300 -0.198800 -0.210600
vn -4.840056 -0.941979 -3.866863
v 0.049100 -0.172100 -0.192300
vn -4.076631 0.999119 -3.809277
v 0.020900 -0.106400 -0.171600
vn 3.211093 -0.693824 5.194212
v 0.071100 -0.025300 0.028000
vn 2.115411 2.262968 3.332708
v 0.065800 -0.014400 0.031700
vn 1.342378 -1.988678 4.430485
v 0.069900 -0.050500 0.024400
vn 4.464534 0.424694 4.045999
v 0.071800 -0.024500 0.027500
vn 2.908337 2.717258 -4.775495
v 0.095100 -0.162400 -0.227500
vn -0.506103 2.045497 -4.514847
v 0.083100 -0.150800 -0.226800
vn 2.539998 3.676445 -4.344388
v 0.098900 -0.076900 -0.158600
vn 3.704300 2.181274 -4.360601
v 0.096400 -0.162400 -0.226600
vn 0.394038 -0.430889 -3.516110
v 0.090800 -0.174100 -0.235500
# 62 vertices, 0 vertices normals

f 34//34 29//29 27//27
f 44//44 62//62 42//42
f 44//44 5//5 7//7
f 1//1 7//7 5//5
f 1//1 3//3 7//7
f 5//5 3//3 1//1
f 3//3 24//24 7//7
f 25//25 24//24 56//56
f 24//24 23//23 7//7
f 2//2 5//5 56//56
f 2//2 3//3 5//5
f 24//24 2//2 56//56
f 2//2 24//24 3//3
f 31//31 27//27 29//29
f 34//34 18//18 35//35
f 18//18 34//34 27//27
f 18//18 19//19 17//17
f 27//27 19//19 18//18
f 11//11 53//53 29//29
f 46//46 47//47 7//7
f 7//7 23//23 46//46
f 5//5 42//42 13//13
f 42//42 14//14 13//13
f 13//13 17//17 9//9
f 13//13 56//56 5//5
f 13//13 9//9 56//56
f 42//42 39//39 16//16
f 35//35 38//38 62//62
f 38//38 16//16 39//39
f 51//51 62//62 44//44
f 4//4 42//42 5//5
f 44//44 4//4 5//5
f 4//4 44//44 42//42
f 7//7 47//47 6//6
f 6//6 44//44 7//7
f 44//44 6//6 47//47
f 56//56 10//10 20//20
f 20//20 17//17 19//19
f 8//8 9//9 17//17
f 20//20 8//8 17//17
f 8//8 20//20 10//10
f 9//9 8//8 56//56
f 8//8 10//10 56//56
f 26//26 19//19 27//27
f 26//26 55//55 19//19
f 22//22 31//31 23//23
f 31//31 30//30 23//23
f 30//30 46//46 23//23
f 53//53 46//46 30//30
f 59//59 11//11 29//29
f 59//59 29//29 34//34
f 62//62 53//53 59//59
f 53//53 11//11 59//59
f 60//60 36//36 35//35
f 36//36 60//60 34//34
f 12//12 16//16 17//17
f 12//12 17//17 13//13
f 12//12 13//13 14//14
f 12//12 14//14 42//42
f 42//42 16//16 12//12
f 41//41 42//42 62//62
f 43//43 39//39 42//42
f 43//43 62//62 38//38
f 43//43 41//41 62//62
f 15//15 38//38 35//35
f 16//16 38//38 15//15
f 17//17 16//16 15//15
f 15//15 18//18 17//17
f 18//18 15//15 35//35
f 50//50 53//53 62//62
f 51//51 50//50 62//62
f 52//52 46//46 53//53
f 57//57 19//19 55//55
f 57//57 20//20 19//19
f 56//56 20//20 57//57
f 21//21 22//22 23//23
f 23//23 24//24 21//21
f 21//21 24//24 25//25
f 21//21 26//26 27//27
f 55//55 26//26 21//21
f 27//27 31//31 21//21
f 21//21 31//31 22//22
f 21//21 25//25 56//56
f 56//56 55//55 21//21
f 28//28 29//29 53//53
f 53//53 30//30 28//28
f 28//28 31//31 29//29
f 28//28 30//30 31//31
f 61//61 60//60 35//35
f 61//61 35//35 62//62
f 60//60 32//32 34//34
f 32//32 59//59 34//34
f 32//32 60//60 59//59
f 33//33 34//34 35//35
f 36//36 33//33 35//35
f 33//33 36//36 34//34
f 37//37 38//38 39//39
f 37//37 39//39 43//43
f 37//37 43//43 38//38
f 42//42 41//41 40//40
f 40//40 43//43 42//42
f 43//43 40//40 41//41
f 48//48 51//51 44//44
f 48//48 52//52 51//51
f 48//48 44//44 47//47
f 45//45 47//47 46//46
f 46//46 52//52 45//45
f 45//45 48//48 47//47
f 52//52 48//48 45//45
f 49//49 50//50 51//51
f 49//49 51//51 52//52
f 53//53 50//50 49//49
f 49//49 52//52 53//53
f 54//54 55//55 56//56
f 57//57 54//54 56//56
f 54//54 57//57 55//55
f 58//58 59//59 60//60
f 61//61 58//58 60//60
f 62//62 59//59 58//58
f 58//58 61//61 62//62
# 120 faces, 0 coords texture

# End of File
