####
#
# OBJ File Generated by Meshlab
#
####
# Object Pipe2.obj
#
# Vertices: 51
# Faces: 98
#
####
vn -2.778621 -0.888389 -4.966319
v 0.126000 -0.165600 -0.292200
vn -0.213273 -3.044959 5.122591
v 0.117400 -0.176700 -0.108700
vn 5.533992 -2.468569 0.100193
v 0.193700 -0.142900 -0.227400
vn 1.557385 5.528952 2.514104
v 0.168400 -0.091700 -0.196800
vn -0.608575 2.653343 5.062714
v 0.129400 -0.158200 -0.103000
vn 1.697990 2.978819 3.792797
v 0.160400 -0.127900 -0.124100
vn 1.085518 -3.804404 -2.932686
v 0.127600 -0.207400 -0.270700
vn -2.892298 -3.693868 -3.949542
v 0.121600 -0.205700 -0.269100
vn -3.003278 -0.014254 5.057918
v 0.058500 -0.183900 -0.132800
vn -3.602848 2.233995 4.483706
v 0.047500 -0.153500 -0.151100
vn 0.272577 -0.361689 4.387214
v 0.129100 -0.163600 -0.100800
vn -4.277606 -1.112663 4.280488
v 0.049700 -0.184100 -0.140100
vn -3.694139 -2.885345 2.429372
v 0.055700 -0.194200 -0.138000
vn -2.097396 -2.515592 5.109761
v 0.080000 -0.202000 -0.128400
vn 0.171765 -4.849159 2.689013
v 0.111700 -0.252800 -0.186400
vn 3.250795 -3.392229 2.565958
v 0.149800 -0.199900 -0.138000
vn 0.410004 -3.485399 -0.403500
v 0.114000 -0.256600 -0.195400
vn 0.706963 -4.749348 3.972739
v 0.109300 -0.241300 -0.171900
vn -3.017341 -4.740407 0.548067
v 0.110200 -0.254300 -0.191300
vn -2.373127 -4.729915 2.727371
v 0.082100 -0.216800 -0.142600
vn -1.011819 -3.875197 4.182055
v 0.084100 -0.208800 -0.131200
vn 5.060503 -2.801203 -1.643107
v 0.190900 -0.144900 -0.241400
vn 3.827173 3.093444 2.791496
v 0.171700 -0.123100 -0.140900
vn 5.890443 -0.383477 1.463962
v 0.204100 -0.105200 -0.228700
vn 4.135952 -0.656693 3.015039
v 0.171300 -0.151000 -0.126200
vn 3.336623 4.742502 1.148720
v 0.195400 -0.083300 -0.256000
vn 2.209375 5.294136 2.239693
v 0.179300 -0.094100 -0.198400
vn -0.826513 5.095045 0.672595
v 0.135100 -0.082600 -0.196600
vn 4.241163 3.059404 2.118745
v 0.193700 -0.100200 -0.203400
vn 4.436649 4.218827 1.356236
v 0.198400 -0.089400 -0.246700
vn -4.377644 2.127929 -3.959176
v 0.129400 -0.137200 -0.288700
vn -0.662857 1.286854 -3.985507
v 0.138100 -0.132400 -0.295600
vn -1.633199 0.074911 -4.773928
v 0.128300 -0.153200 -0.294900
vn -4.622527 1.893707 -3.698941
v 0.104500 -0.142200 -0.263400
vn -4.882589 0.165334 -3.658079
v 0.066100 -0.163800 -0.223000
vn -4.586319 0.494155 0.778410
v 0.038300 -0.157200 -0.158600
vn -4.167674 -0.925204 1.691540
v 0.044100 -0.179300 -0.144700
vn -4.335818 -2.367753 -3.216258
v 0.085800 -0.205300 -0.237900
vn -3.964015 -3.704487 -2.258651
v 0.089100 -0.221700 -0.223900
vn 4.866389 -0.252724 -2.615112
v 0.198000 -0.094700 -0.268400
vn 4.773108 -1.940092 -3.093274
v 0.192500 -0.117800 -0.264100
vn 0.319752 -2.113565 -3.512458
v 0.131200 -0.189400 -0.288000
vn 4.295293 0.259120 -3.609292
v 0.193800 -0.087900 -0.274100
vn 4.991664 0.961615 0.275085
v 0.205800 -0.101300 -0.235000
vn 2.885849 3.850461 -0.364150
v 0.194700 -0.080900 -0.264400
vn -4.145152 3.716857 -2.654250
v 0.056000 -0.126900 -0.178500
vn -4.969148 0.080885 -2.351599
v 0.051600 -0.160100 -0.202500
vn -4.000507 3.468300 -3.114720
v 0.107900 -0.135400 -0.262800
vn -4.861321 2.986191 -1.007244
v 0.052000 -0.128400 -0.173600
vn -2.498377 3.538761 1.289312
v 0.064500 -0.111400 -0.162500
vn 0.817184 2.074850 -2.093540
v 0.190000 -0.080800 -0.277400
# 51 vertices, 0 vertices normals

f 51//51 50//50 28//28
f 6//6 11//11 25//25
f 6//6 28//28 50//50
f 42//42 8//8 38//38
f 42//42 1//1 33//33
f 1//1 42//42 38//38
f 1//1 35//35 33//33
f 38//38 35//35 1//1
f 10//10 50//50 36//36
f 32//32 42//42 33//33
f 21//21 13//13 20//20
f 37//37 10//10 36//36
f 14//14 13//13 21//21
f 14//14 2//2 11//11
f 2//2 14//14 21//21
f 16//16 25//25 11//11
f 2//2 16//16 11//11
f 18//18 16//16 21//21
f 16//16 2//2 21//21
f 16//16 17//17 3//3
f 16//16 3//3 25//25
f 24//24 3//3 44//44
f 3//3 24//24 25//25
f 22//22 3//3 17//17
f 22//22 44//44 3//3
f 45//45 51//51 28//28
f 4//4 27//27 28//28
f 6//6 4//4 28//28
f 4//4 6//6 27//27
f 5//5 11//11 6//6
f 5//5 6//6 50//50
f 5//5 10//10 11//11
f 5//5 50//50 10//10
f 23//23 6//6 25//25
f 6//6 23//23 27//27
f 39//39 8//8 17//17
f 39//39 38//38 8//8
f 17//17 8//8 7//7
f 7//7 8//8 42//42
f 7//7 22//22 17//17
f 22//22 7//7 42//42
f 32//32 48//48 51//51
f 19//19 20//20 13//13
f 37//37 19//19 13//13
f 19//19 39//39 17//17
f 19//19 37//37 39//39
f 12//12 37//37 13//13
f 9//9 11//11 10//10
f 9//9 10//10 37//37
f 12//12 9//9 37//37
f 9//9 12//12 13//13
f 9//9 14//14 11//11
f 9//9 13//13 14//14
f 17//17 16//16 15//15
f 15//15 16//16 18//18
f 15//15 19//19 17//17
f 19//19 15//15 20//20
f 15//15 18//18 21//21
f 21//21 20//20 15//15
f 41//41 22//22 42//42
f 41//41 44//44 22//22
f 30//30 29//29 44//44
f 27//27 23//23 29//29
f 29//29 24//24 44//44
f 24//24 29//29 25//25
f 29//29 23//23 25//25
f 28//28 27//27 26//26
f 26//26 45//45 28//28
f 27//27 29//29 26//26
f 26//26 29//29 30//30
f 26//26 30//30 44//44
f 45//45 26//26 44//44
f 50//50 49//49 36//36
f 34//34 48//48 32//32
f 34//34 33//33 35//35
f 43//43 42//42 32//32
f 43//43 32//32 51//51
f 43//43 51//51 45//45
f 31//31 32//32 33//33
f 31//31 33//33 34//34
f 31//31 34//34 32//32
f 34//34 47//47 48//48
f 47//47 34//34 35//35
f 49//49 47//47 36//36
f 47//47 37//37 36//36
f 47//47 35//35 38//38
f 47//47 39//39 37//37
f 39//39 47//47 38//38
f 40//40 41//41 42//42
f 40//40 42//42 43//43
f 44//44 41//41 40//40
f 40//40 45//45 44//44
f 40//40 43//43 45//45
f 46//46 48//48 47//47
f 46//46 47//47 49//49
f 46//46 49//49 50//50
f 46//46 50//50 51//51
f 46//46 51//51 48//48
# 98 faces, 0 coords texture

# End of File
