####
#
# OBJ File Generated by Meshlab
#
####
# Object SeatRim.obj
#
# Vertices: 117
# Faces: 230
#
####
vn -5.342238 -2.539054 1.409885
v -0.179100 -0.414900 0.184700
vn -4.228299 -4.447548 -0.534538
v -0.192400 -0.398400 0.086400
vn -5.593049 1.977276 1.985840
v -0.196200 -0.353200 0.170800
vn -5.332088 0.325258 2.215437
v -0.187800 -0.362900 0.203100
vn -3.551317 -4.215840 2.791862
v -0.151400 -0.422500 0.220200
vn -2.620325 -2.824424 4.483298
v -0.112900 -0.402500 0.268800
vn -1.809921 -4.484918 2.106531
v -0.144500 -0.424300 0.226000
vn -3.842995 -1.087067 4.440239
v -0.155500 -0.366100 0.252400
vn -4.487139 -2.633588 2.970595
v -0.169100 -0.409800 0.213200
vn -5.488664 -2.639940 -1.198623
v -0.191400 -0.382500 0.028000
vn -2.550848 -4.492341 0.582602
v -0.173000 -0.425000 0.183000
vn -0.662565 5.994442 1.615113
v -0.104400 -0.317600 0.264200
vn -4.335598 0.531521 3.900005
v -0.159800 -0.359500 0.248900
vn -5.733044 0.025571 -0.859251
v -0.209400 -0.343400 0.047600
vn 2.425709 5.628323 0.760882
v 0.139500 -0.316000 0.079000
vn 3.303150 5.124599 1.325777
v 0.137800 -0.322700 0.113900
vn -4.604663 3.673023 2.081194
v -0.176900 -0.343000 0.201600
vn -5.189169 2.793607 2.101431
v -0.193300 -0.351900 0.176900
vn -4.663370 1.141988 2.921889
v -0.171000 -0.356100 0.234000
vn -2.338299 -0.654433 5.786501
v -0.102100 -0.331000 0.284600
vn -2.002651 -1.798091 5.433308
v -0.102600 -0.398200 0.275400
vn 3.975070 4.274916 1.844866
v 0.137800 -0.335100 0.155500
vn -6.010967 -1.032071 -0.333108
v -0.210800 -0.347900 0.070300
vn -3.360572 -3.610759 -1.477259
v -0.167300 -0.395000 -0.045600
vn -2.087438 5.627904 1.771955
v -0.127500 -0.318400 0.248400
vn -2.749379 4.212918 2.821530
v -0.111500 -0.323200 0.277400
vn -3.354137 4.394625 2.247985
v -0.135100 -0.320400 0.245200
vn 5.812882 -0.554576 2.310042
v 0.146000 -0.347600 0.139900
vn 6.233433 -0.547622 0.279876
v 0.260000 -0.349400 -0.153600
vn 5.121574 1.684271 -0.328492
v 0.260300 -0.344500 -0.155500
vn 3.768457 2.913554 -0.991963
v 0.257600 -0.340100 -0.160500
vn 4.517263 1.112012 4.062057
v 0.102300 -0.350400 0.208700
vn 4.529495 1.768875 2.616260
v 0.137800 -0.338800 0.162100
vn 4.382163 -1.440353 3.650405
v 0.111500 -0.376000 0.199800
vn 0.906252 2.547875 4.699067
v -0.032500 -0.329900 0.287700
vn 0.962856 3.672361 4.411632
v -0.022500 -0.328200 0.284300
vn -1.553431 2.502237 3.556049
v -0.106300 -0.324100 0.283600
vn -0.720451 1.030295 5.548096
v -0.087100 -0.333400 0.289900
vn 0.495307 1.054650 5.703319
v -0.041400 -0.333800 0.290100
vn -5.946471 -1.979902 0.439535
v -0.191000 -0.395800 0.130600
vn -5.368389 -2.989071 0.222999
v -0.185600 -0.408700 0.144900
vn -5.800703 -0.153383 1.276887
v -0.203100 -0.353800 0.150600
vn -6.006991 -1.791027 0.294912
v -0.210200 -0.349300 0.075200
vn -5.300771 -2.979372 -0.381118
v -0.194000 -0.396200 0.084700
vn 2.796556 2.429775 -3.903896
v 0.163100 -0.312300 -0.287800
vn 2.872402 2.918773 -1.893010
v 0.185200 -0.308500 -0.266700
vn -1.636329 -3.930624 -4.180561
v 0.058200 -0.366900 -0.315100
vn 4.596672 -0.215135 -4.258752
v 0.206000 -0.388600 -0.241700
vn -4.643080 4.134779 -0.601980
v -0.201000 -0.332500 0.032900
vn 1.417060 3.828213 -2.994332
v 0.153000 -0.313000 -0.294600
vn -4.232196 0.346387 -4.583368
v 0.004000 -0.346600 -0.281800
vn 1.941714 -4.000478 3.813789
v -0.027600 -0.417900 0.270900
vn -0.101972 -2.952028 4.148304
v -0.053400 -0.417400 0.281300
vn 0.665041 -5.116443 2.229674
v -0.044500 -0.421900 0.273800
vn 2.487677 2.546175 4.356866
v 0.033800 -0.324400 0.262500
vn 2.903411 0.453679 5.552933
v 0.019000 -0.330300 0.270800
vn 2.025912 1.746512 5.311340
v 0.014200 -0.329200 0.273200
vn 3.725593 2.657310 4.084664
v 0.050000 -0.327500 0.250200
vn 3.912814 2.425131 3.988520
v 0.070200 -0.334700 0.235900
vn 3.952856 0.021428 4.638584
v 0.075400 -0.352800 0.236300
vn 1.387528 2.733118 4.783473
v -0.008100 -0.327600 0.280000
vn 3.079751 -3.261286 4.367642
v 0.029800 -0.400600 0.249300
vn 2.456342 -3.638346 4.270887
v -0.004000 -0.410900 0.263900
vn 2.654374 -1.233292 5.090264
v 0.027400 -0.372500 0.269400
vn 3.143640 -3.858160 3.397319
v 0.070000 -0.410100 0.212600
vn 4.405444 -3.226333 2.712852
v 0.111700 -0.378600 0.197300
vn 2.154186 -5.124514 1.434487
v 0.070300 -0.414100 0.205600
vn 5.508100 -2.048045 1.866657
v 0.246200 -0.400000 -0.139000
vn 3.398046 -2.413092 -0.765822
v 0.255700 -0.399300 -0.170200
vn 2.789104 -4.573519 0.830615
v 0.243800 -0.403500 -0.137900
vn 5.532888 -0.431779 -0.889617
v 0.256200 -0.395500 -0.169300
vn 5.037328 1.509398 1.375976
v 0.260000 -0.345900 -0.149900
vn 3.757226 -3.721156 1.512705
v 0.223300 -0.403000 -0.083400
vn 5.265184 -1.908821 2.426759
v 0.137700 -0.369600 0.153800
vn -0.575578 5.858131 -2.125018
v 0.102700 -0.321400 -0.311100
vn -0.487697 -3.898241 -3.785432
v 0.080800 -0.371600 -0.317700
vn 2.214287 -2.894666 -2.084706
v 0.212400 -0.403900 -0.234000
vn 3.585949 -0.943190 -5.064081
v 0.135900 -0.364600 -0.301600
vn 3.261741 -2.068302 -4.533762
v 0.188300 -0.389100 -0.258800
vn 4.087167 -0.362259 -4.699058
v 0.172700 -0.335100 -0.279200
vn 2.499859 -2.284106 -4.832512
v 0.120500 -0.367200 -0.311800
vn -0.223157 6.248866 -0.114935
v -0.067100 -0.297400 -0.074200
vn 2.060236 3.446603 -2.240983
v 0.182100 -0.307900 -0.269500
vn 1.475259 4.865594 1.887447
v 0.041600 -0.300500 0.229900
vn -1.241812 5.932389 1.096299
v -0.120300 -0.316200 0.249100
vn -2.229333 5.704320 1.021442
v -0.133900 -0.319400 0.243500
vn -4.240646 1.925249 0.560660
v -0.211900 -0.335700 0.107200
vn -3.449142 2.687603 -3.979324
v 0.004000 -0.323500 -0.277100
vn -4.716750 -1.067512 -3.910940
v -0.062900 -0.367500 -0.217100
vn -2.427035 -3.462162 -2.464516
v -0.053600 -0.388600 -0.221400
vn -5.383163 1.161862 -1.251791
v -0.206700 -0.339600 0.035900
vn -5.091848 -1.282513 -2.907553
v -0.164400 -0.385400 -0.059200
vn -1.292947 4.534951 -4.084331
v 0.066000 -0.330100 -0.312000
vn 0.249161 0.732532 -6.009424
v 0.094000 -0.344100 -0.322300
vn -0.366336 0.266334 -6.262251
v 0.057200 -0.349300 -0.320400
vn -2.206601 -0.609482 -4.662164
v 0.045500 -0.351800 -0.319800
vn 0.829968 -2.475728 -4.577766
v 0.099500 -0.367500 -0.320900
vn 1.166016 2.343075 -3.637671
v 0.125100 -0.321300 -0.315200
vn -1.480618 2.289830 -5.018844
v 0.051300 -0.342700 -0.319500
vn -0.504222 3.934925 -4.169031
v 0.103000 -0.323100 -0.315000
vn -1.747453 5.812458 -1.519700
v -0.010100 -0.320300 -0.258000
vn -2.253240 5.123308 -2.329407
v -0.000000 -0.320500 -0.269500
vn -1.555596 4.839126 -2.643673
v 0.011400 -0.319900 -0.278600
vn -1.781814 6.009130 -0.432672
v -0.164700 -0.317600 0.005000
vn -2.540083 5.456497 -0.014866
v -0.191600 -0.321200 0.069200
vn -3.100753 3.928187 -2.756485
v -0.008100 -0.320900 -0.262300
vn -2.513649 5.295842 -1.920449
v -0.013300 -0.320300 -0.254100
vn -5.154552 1.395053 -2.221413
v -0.190700 -0.331200 -0.010200
vn -4.506073 0.853763 -3.643535
v -0.063800 -0.356100 -0.218500
vn -3.776405 3.934593 -2.657767
v -0.098300 -0.319200 -0.136500
vn -3.987523 3.854846 -2.357936
v -0.184100 -0.326600 -0.016400
vn -3.872490 4.402255 -1.789554
v -0.187400 -0.326600 -0.009800
vn -2.506516 5.556308 -1.239621
v -0.157400 -0.320500 -0.047800
vn -1.100758 6.042913 -0.585621
v -0.078400 -0.298300 -0.079100
vn -2.748941 5.162326 -1.734325
v -0.117400 -0.314300 -0.098700
vn -3.554670 4.290551 -2.114826
v -0.167700 -0.323000 -0.037300
vn -3.623119 4.364523 -0.972566
v -0.190400 -0.325900 -0.000900
# 117 vertices, 0 vertices normals

f 42//42 1//1 4//4
f 9//9 1//1 11//11
f 1//1 9//9 4//4
f 11//11 2//2 24//24
f 44//44 24//24 2//2
f 85//85 12//12 84//84
f 37//37 84//84 12//12
f 13//13 8//8 37//37
f 37//37 8//8 21//21
f 84//84 46//46 83//83
f 42//42 41//41 1//1
f 1//1 41//41 11//11
f 11//11 41//41 2//2
f 2//2 41//41 44//44
f 42//42 3//3 87//87
f 87//87 3//3 18//18
f 4//4 3//3 42//42
f 18//18 3//3 4//4
f 9//9 19//19 4//4
f 8//8 13//13 19//19
f 8//8 19//19 9//9
f 18//18 4//4 19//19
f 5//5 9//9 11//11
f 7//7 5//5 11//11
f 9//9 5//5 7//7
f 53//53 38//38 21//21
f 53//53 39//39 38//38
f 7//7 54//54 53//53
f 11//11 54//54 7//7
f 77//77 54//54 11//11
f 53//53 21//21 6//6
f 53//53 6//6 7//7
f 8//8 6//6 21//21
f 7//7 6//6 9//9
f 6//6 8//8 9//9
f 54//54 70//70 67//67
f 54//54 77//77 70//70
f 14//14 23//23 87//87
f 23//23 14//14 44//44
f 44//44 10//10 24//24
f 24//24 10//10 14//14
f 14//14 10//10 44//44
f 76//76 77//77 90//90
f 77//77 11//11 90//90
f 76//76 90//90 47//47
f 24//24 90//90 11//11
f 85//85 26//26 12//12
f 12//12 26//26 37//37
f 19//19 26//26 27//27
f 37//37 26//26 13//13
f 19//19 13//13 26//26
f 27//27 86//86 87//87
f 14//14 91//91 24//24
f 87//87 91//91 14//14
f 46//46 48//48 80//80
f 77//77 48//48 46//46
f 33//33 22//22 84//84
f 84//84 22//22 16//16
f 16//16 22//22 31//31
f 16//16 15//15 84//84
f 15//15 46//46 84//84
f 16//16 31//31 15//15
f 46//46 15//15 31//31
f 18//18 17//17 87//87
f 19//19 17//17 18//18
f 27//27 87//87 17//17
f 17//17 19//19 27//27
f 21//21 20//20 37//37
f 38//38 20//20 21//21
f 37//37 20//20 38//38
f 53//53 64//64 39//39
f 64//64 34//34 60//60
f 34//34 74//74 33//33
f 29//29 30//30 72//72
f 33//33 72//72 22//22
f 31//31 72//72 30//30
f 22//22 72//72 31//31
f 69//69 70//70 77//77
f 84//84 59//59 33//33
f 58//58 59//59 84//84
f 37//37 36//36 84//84
f 23//23 44//44 43//43
f 43//43 42//42 87//87
f 23//23 43//43 87//87
f 92//92 90//90 24//24
f 91//91 92//92 24//24
f 25//25 26//26 85//85
f 26//26 25//25 27//27
f 86//86 25//25 85//85
f 27//27 25//25 86//86
f 87//87 49//49 91//91
f 103//103 99//99 88//88
f 64//64 56//56 57//57
f 65//65 34//34 64//64
f 67//67 66//66 65//65
f 65//65 66//66 34//34
f 34//34 66//66 74//74
f 74//74 28//28 33//33
f 33//33 28//28 72//72
f 72//72 28//28 74//74
f 29//29 71//71 30//30
f 71//71 31//31 30//30
f 72//72 71//71 29//29
f 71//71 46//46 31//31
f 46//46 71//71 77//77
f 71//71 69//69 77//77
f 59//59 32//32 33//33
f 32//32 59//59 60//60
f 34//34 33//33 32//32
f 34//34 32//32 60//60
f 36//36 61//61 84//84
f 35//35 36//36 37//37
f 35//35 38//38 39//39
f 38//38 35//35 37//37
f 36//36 35//35 61//61
f 64//64 35//35 39//39
f 35//35 64//64 57//57
f 61//61 35//35 57//57
f 40//40 41//41 42//42
f 43//43 40//40 42//42
f 41//41 40//40 44//44
f 43//43 44//44 40//40
f 50//50 75//75 103//103
f 75//75 50//50 98//98
f 83//83 45//45 50//50
f 46//46 45//45 83//83
f 80//80 45//45 46//46
f 98//98 45//45 80//80
f 50//50 45//45 98//98
f 47//47 96//96 76//76
f 90//90 96//96 47//47
f 88//88 96//96 51//51
f 99//99 96//96 88//88
f 48//48 79//79 80//80
f 77//77 79//79 48//48
f 81//81 79//79 77//77
f 49//49 117//117 91//91
f 49//49 87//87 117//117
f 50//50 114//114 83//83
f 103//103 114//114 50//50
f 115//115 114//114 107//107
f 51//51 109//109 88//88
f 96//96 109//109 51//51
f 64//64 53//53 52//52
f 63//63 64//64 52//52
f 54//54 52//52 53//53
f 52//52 54//54 67//67
f 65//65 52//52 67//67
f 65//65 63//63 52//52
f 56//56 55//55 57//57
f 58//58 84//84 55//55
f 59//59 55//55 60//60
f 59//59 58//58 55//55
f 60//60 55//55 64//64
f 56//56 64//64 55//55
f 61//61 55//55 84//84
f 61//61 57//57 55//55
f 63//63 62//62 64//64
f 64//64 62//62 65//65
f 65//65 62//62 63//63
f 66//66 73//73 74//74
f 70//70 73//73 67//67
f 67//67 73//73 66//66
f 69//69 68//68 70//70
f 71//71 68//68 69//69
f 71//71 72//72 68//68
f 68//68 73//73 70//70
f 72//72 74//74 68//68
f 73//73 68//68 74//74
f 75//75 98//98 100//100
f 75//75 100//100 103//103
f 99//99 95//95 96//96
f 76//76 97//97 77//77
f 77//77 97//97 81//81
f 81//81 97//97 98//98
f 96//96 97//97 76//76
f 79//79 78//78 80//80
f 81//81 78//78 79//79
f 98//98 80//80 78//78
f 81//81 98//98 78//78
f 88//88 102//102 103//103
f 83//83 82//82 84//84
f 114//114 82//82 83//83
f 85//85 84//84 82//82
f 82//82 114//114 85//85
f 114//114 105//105 85//85
f 105//105 86//86 85//85
f 86//86 105//105 87//87
f 117//117 87//87 105//105
f 109//109 106//106 88//88
f 106//106 102//102 88//88
f 89//89 96//96 90//90
f 96//96 89//89 109//109
f 92//92 89//89 90//90
f 109//109 89//89 92//92
f 117//117 108//108 91//91
f 92//92 108//108 109//109
f 92//92 91//91 108//108
f 103//103 93//93 99//99
f 100//100 93//93 103//103
f 99//99 93//93 100//100
f 95//95 94//94 96//96
f 96//96 94//94 97//97
f 97//97 94//94 98//98
f 95//95 99//99 94//94
f 100//100 98//98 94//94
f 100//100 94//94 99//99
f 114//114 101//101 107//107
f 106//106 107//107 101//101
f 106//106 101//101 102//102
f 101//101 114//114 103//103
f 102//102 101//101 103//103
f 114//114 117//117 104//104
f 105//105 104//104 117//117
f 104//104 105//105 114//114
f 106//106 109//109 110//110
f 107//107 110//110 115//115
f 106//106 110//110 107//107
f 117//117 112//112 108//108
f 108//108 111//111 109//109
f 110//110 109//109 111//111
f 112//112 111//111 108//108
f 110//110 116//116 115//115
f 111//111 116//116 110//110
f 112//112 117//117 116//116
f 112//112 116//116 111//111
f 113//113 114//114 115//115
f 116//116 113//113 115//115
f 114//114 113//113 117//117
f 116//116 117//117 113//113
# 230 faces, 0 coords texture

# End of File
