####
#
# OBJ File Generated by Meshlab
#
####
# Object TankSupport.obj
#
# Vertices: 27
# Faces: 50
#
####
vn -2.585467 -3.619503 -3.100223
v 0.122500 -0.332200 -0.286500
vn -2.012252 -4.465603 -2.179583
v 0.128500 -0.340700 -0.279700
vn -5.809295 0.876671 -2.132226
v 0.058100 -0.225300 -0.109400
vn -2.128897 0.625495 -4.281361
v 0.123500 -0.309400 -0.287900
vn -3.262754 2.835314 -2.661702
v 0.148100 -0.144900 -0.265300
vn 2.308913 5.173157 0.660158
v 0.184200 -0.147100 -0.258800
vn -0.410580 2.940907 -2.425689
v 0.155100 -0.142100 -0.268300
vn 0.655817 -4.354939 0.687948
v 0.202900 -0.367800 -0.259600
vn 3.582743 0.158182 -1.341211
v 0.206800 -0.342900 -0.262900
vn 1.501694 -2.502846 -3.321415
v 0.205900 -0.366400 -0.263300
vn -1.821474 -0.878130 -3.282570
v 0.121100 -0.328500 -0.289200
vn 2.370718 1.871244 -2.061600
v 0.190700 -0.150600 -0.266000
vn 2.620988 -1.751676 -0.164125
v 0.207100 -0.366600 -0.262000
vn 4.598793 2.232696 1.205181
v 0.191100 -0.151500 -0.261700
vn 5.318856 0.234921 3.333328
v 0.201500 -0.340900 -0.254400
vn -2.978072 -2.004846 0.516422
v 0.049700 -0.305900 -0.111500
vn 2.465523 -0.770353 5.035962
v 0.081100 -0.276300 -0.092300
vn -2.613864 -2.525522 3.416047
v 0.053400 -0.303600 -0.105300
vn -3.873023 1.445956 1.261507
v 0.057100 -0.182100 -0.087300
vn 3.284672 -0.369230 4.881375
v 0.086500 -0.182200 -0.085700
vn -1.105833 2.837909 1.378916
v 0.076800 -0.154600 -0.088700
vn 1.965006 1.739825 3.611432
v 0.086400 -0.162300 -0.084400
vn -1.087189 -1.218075 5.958785
v 0.076000 -0.292600 -0.094700
vn 1.510598 -2.621855 4.733394
v 0.076200 -0.300000 -0.096700
vn 2.130523 -1.398276 4.927457
v 0.079400 -0.291800 -0.094400
vn -0.322975 -3.282810 3.838255
v 0.072400 -0.303200 -0.098000
vn -1.586044 0.062256 4.953292
v 0.063700 -0.190500 -0.080600
# 27 vertices, 0 vertices normals

f 2//2 8//8 16//16
f 8//8 10//10 13//13
f 2//2 10//10 8//8
f 4//4 5//5 7//7
f 5//5 21//21 7//7
f 19//19 21//21 5//5
f 17//17 25//25 13//13
f 22//22 13//13 15//15
f 25//25 24//24 13//13
f 8//8 13//13 24//24
f 10//10 1//1 11//11
f 1//1 10//10 2//2
f 11//11 1//1 16//16
f 16//16 1//1 2//2
f 4//4 12//12 11//11
f 12//12 4//4 7//7
f 4//4 3//3 5//5
f 19//19 5//5 3//3
f 11//11 3//3 4//4
f 3//3 11//11 16//16
f 19//19 3//3 16//16
f 14//14 6//6 22//22
f 22//22 6//6 21//21
f 12//12 6//6 14//14
f 21//21 6//6 7//7
f 12//12 7//7 6//6
f 22//22 20//20 13//13
f 20//20 17//17 13//13
f 8//8 26//26 16//16
f 24//24 26//26 8//8
f 9//9 10//10 11//11
f 12//12 9//9 11//11
f 10//10 9//9 13//13
f 12//12 14//14 9//9
f 15//15 13//13 9//9
f 14//14 22//22 9//9
f 15//15 9//9 22//22
f 19//19 16//16 18//18
f 26//26 18//18 16//16
f 17//17 27//27 25//25
f 18//18 27//27 19//19
f 26//26 27//27 18//18
f 20//20 27//27 17//17
f 21//21 27//27 22//22
f 21//21 19//19 27//27
f 20//20 22//22 27//27
f 24//24 25//25 23//23
f 26//26 24//24 23//23
f 27//27 23//23 25//25
f 23//23 27//27 26//26
# 50 faces, 0 coords texture

# End of File
