####
#
# OBJ File Generated by Meshlab
#
####
# Object Tank.obj
#
# Vertices: 107
# Faces: 210
#
####
vn -0.949713 -0.068618 -0.305512
v -0.093600 -0.444700 -0.252100
vn -0.746156 -0.163633 -0.645349
v -0.013100 -0.680100 -0.357600
vn 0.128460 -0.911715 -0.390222
v 0.062100 -0.738300 -0.359400
vn 0.298927 -0.649515 -0.699123
v 0.070000 -0.732300 -0.366000
vn -0.408686 -0.623484 0.666515
v -0.013300 -0.738500 -0.224800
vn -0.647531 -0.437904 0.623654
v -0.039900 -0.720600 -0.228200
vn -0.367723 -0.888662 0.273970
v -0.019100 -0.742100 -0.232700
vn 0.206796 0.869027 -0.449475
v 0.027500 -0.380300 -0.372400
vn 0.296491 0.394341 -0.869821
v 0.036500 -0.401100 -0.391500
vn -0.545511 0.448930 -0.707729
v -0.036900 -0.397000 -0.361500
vn -0.815701 -0.107405 -0.568415
v -0.035600 -0.545900 -0.352700
vn 0.046181 -0.153790 -0.987024
v 0.040200 -0.692100 -0.396600
vn 0.472159 0.067641 0.878915
v 0.272400 -0.453800 -0.056600
vn -0.984132 -0.111671 -0.137888
v -0.085400 -0.585600 -0.235900
vn -0.946769 -0.087329 -0.309841
v -0.081300 -0.557000 -0.263400
vn -0.862784 -0.500557 -0.071032
v -0.063700 -0.715700 -0.269100
vn -0.290131 0.025729 -0.956641
v 0.009700 -0.432800 -0.397200
vn 0.186078 0.041160 -0.981673
v 0.025100 -0.433900 -0.397800
vn -0.243722 -0.031041 -0.969348
v 0.014800 -0.486400 -0.398100
vn 0.001587 0.979639 -0.200761
v -0.025200 -0.364900 -0.332400
vn -0.493257 0.619242 -0.610931
v -0.034000 -0.389400 -0.356800
vn -0.017961 0.826524 -0.562614
v 0.015200 -0.380400 -0.378100
vn -0.223027 0.379829 -0.897769
v 0.008700 -0.399600 -0.395400
vn -0.628903 -0.073086 -0.774041
v -0.010900 -0.467300 -0.383600
vn -0.736474 -0.107997 -0.667789
v -0.016900 -0.644200 -0.360300
vn -0.560437 -0.026041 -0.827788
v -0.007200 -0.456700 -0.387400
vn -0.618513 -0.131185 -0.774747
v 0.026600 -0.696700 -0.388400
vn -0.131951 -0.575875 -0.806819
v 0.025200 -0.724900 -0.376300
vn 0.185392 -0.551087 -0.813593
v 0.049500 -0.722000 -0.380900
vn -0.391587 -0.771472 -0.501489
v 0.007400 -0.744000 -0.359500
vn -0.280354 -0.329157 -0.901697
v 0.033200 -0.703100 -0.392500
vn 0.531321 -0.018152 -0.846976
v 0.315300 -0.647500 -0.250300
vn 0.597735 -0.096802 -0.795828
v 0.320100 -0.700400 -0.245800
vn 0.455902 -0.186128 -0.870351
v 0.176600 -0.693300 -0.328700
vn 0.838412 0.528179 0.134512
v 0.334400 -0.390500 -0.206500
vn 0.987874 0.131402 -0.082693
v 0.347200 -0.434100 -0.201900
vn 0.950906 0.196358 0.239211
v 0.347200 -0.433300 -0.183600
vn 0.754743 0.462941 0.464811
v 0.299800 -0.406200 -0.111100
vn 0.947475 0.264646 -0.179592
v 0.341800 -0.418100 -0.209500
vn -0.004641 0.748463 0.663160
v 0.226600 -0.376000 -0.048600
vn -0.086655 -0.164782 0.982516
v 0.241400 -0.590900 -0.068900
vn -0.968272 0.162511 0.189841
v -0.097500 -0.427700 -0.243400
vn -0.702570 -0.021841 0.711279
v -0.082600 -0.515400 -0.222400
vn -0.867088 -0.141820 0.477542
v -0.086000 -0.583700 -0.228800
vn -0.716485 0.026897 0.697083
v -0.085100 -0.466300 -0.225000
vn -0.844732 -0.000462 0.535189
v -0.092800 -0.456000 -0.235800
vn -0.027466 -0.572574 0.819392
v 0.238400 -0.713400 -0.098700
vn 0.228226 -0.859865 0.456667
v 0.252700 -0.714700 -0.105000
vn 0.239163 -0.955401 -0.173232
v 0.311900 -0.728400 -0.239600
vn 0.168261 -0.979770 0.108342
v 0.314600 -0.726100 -0.222400
vn 0.436611 -0.575090 0.691840
v 0.262300 -0.709000 -0.101600
vn 0.323346 -0.898718 0.296233
v 0.258000 -0.715300 -0.110900
vn 0.059665 -0.917930 0.392231
v 0.225500 -0.721800 -0.111100
vn -0.224418 -0.792110 0.567625
v 0.126100 -0.740200 -0.145900
vn -0.383318 0.850422 -0.360346
v -0.030700 -0.365600 -0.334000
vn -0.804020 0.566857 0.179514
v -0.070700 -0.383300 -0.241900
vn -0.882544 0.426756 0.197473
v -0.092000 -0.416100 -0.242100
vn -0.454585 0.767953 0.451221
v -0.030400 -0.350300 -0.191200
vn 0.959440 -0.196873 -0.201784
v 0.336900 -0.680800 -0.226200
vn 0.695895 -0.612221 -0.375388
v 0.320600 -0.725100 -0.240400
vn 0.793926 -0.131490 -0.593626
v 0.325200 -0.702600 -0.240400
vn 0.978220 -0.054693 -0.200234
v 0.344800 -0.598000 -0.221000
vn 0.384983 -0.222517 0.895698
v 0.267000 -0.654200 -0.083700
vn 0.972003 -0.090101 0.217005
v 0.345200 -0.599000 -0.184500
vn 0.905844 -0.018812 0.423194
v 0.336100 -0.522600 -0.149200
vn 0.605014 0.045226 -0.794929
v 0.336400 -0.538900 -0.237000
vn 0.591057 0.159697 -0.790663
v 0.300500 -0.408300 -0.251500
vn 0.810673 0.001584 -0.585497
v 0.341500 -0.560500 -0.234200
vn 0.206728 0.972089 -0.110933
v 0.276500 -0.382400 -0.254800
vn -0.373941 -0.089546 0.923120
v 0.188500 -0.437100 -0.064000
vn -0.351775 -0.293259 0.888962
v 0.136100 -0.731300 -0.138400
vn -0.452235 -0.168175 0.875900
v 0.084500 -0.698800 -0.158300
vn -0.170797 -0.085399 0.981598
v 0.231600 -0.390900 -0.045900
vn 0.300026 0.405850 0.863291
v 0.234700 -0.383500 -0.044900
vn -0.172554 -0.113030 0.978493
v 0.226000 -0.441100 -0.051500
vn 0.730618 -0.554982 0.397734
v 0.305300 -0.697300 -0.156700
vn 0.890213 -0.343514 0.299197
v 0.330300 -0.683300 -0.185700
vn 0.753800 -0.523339 0.397370
v 0.312800 -0.687500 -0.157900
vn 0.571955 -0.793369 0.208406
v 0.316100 -0.725300 -0.217700
vn 0.657252 -0.578046 0.483614
v 0.273600 -0.706000 -0.112700
vn -0.793104 0.527423 -0.304648
v -0.064100 -0.399400 -0.323500
vn -0.627953 0.738977 -0.244106
v -0.051000 -0.368800 -0.296400
vn -0.767074 0.269519 -0.582200
v -0.056200 -0.403700 -0.349800
vn -0.655391 0.750619 -0.083872
v -0.062500 -0.368300 -0.263500
vn -0.917480 0.215076 -0.334623
v -0.076100 -0.411300 -0.309100
vn 0.777683 -0.119430 0.617208
v 0.307800 -0.609000 -0.117800
vn 0.855060 -0.106941 0.507381
v 0.318100 -0.603200 -0.131800
vn 0.810618 0.005608 0.585549
v 0.291900 -0.475800 -0.075600
vn 0.797322 -0.319012 0.512356
v 0.307500 -0.675800 -0.132600
vn 0.688983 0.040566 0.723641
v 0.282700 -0.465000 -0.063800
vn 0.719712 -0.134585 0.681103
v 0.291100 -0.626700 -0.103500
vn 0.699154 -0.243690 0.672160
v 0.288200 -0.672200 -0.109700
vn 0.334302 0.912738 -0.234842
v 0.308700 -0.387600 -0.238300
vn 0.493235 0.464698 -0.735375
v 0.285100 -0.387700 -0.255800
vn 0.289752 0.857026 -0.426087
v 0.266100 -0.381000 -0.261900
vn 0.450589 0.288773 -0.844737
v 0.213800 -0.412300 -0.313000
vn 0.454280 0.714180 -0.532519
v 0.304300 -0.387000 -0.242200
vn 0.558477 0.169748 -0.811966
v 0.256800 -0.411800 -0.283800
vn 0.829280 0.330963 -0.450288
v 0.334900 -0.398800 -0.213400
vn 0.572961 0.598937 -0.559456
v 0.312800 -0.388800 -0.236700
vn 0.654235 0.743712 -0.137366
v 0.333800 -0.389400 -0.208100
vn 0.719883 0.270823 -0.639080
v 0.329300 -0.409200 -0.227500
vn 0.857538 0.127858 -0.498278
v 0.343800 -0.436000 -0.221800
vn -0.407228 0.028974 0.912867
v 0.113400 -0.415500 -0.096600
vn -0.308732 0.036476 0.950449
v 0.229400 -0.385900 -0.046100
vn -0.483289 0.106440 0.868966
v 0.049200 -0.406400 -0.125600
vn -0.418485 -0.071582 0.905399
v 0.120800 -0.427800 -0.093000
# 107 vertices, 0 vertices normals

f 12//12 96//96 34//34
f 54//54 30//30 49//49
f 16//16 11//11 25//25
f 85//85 16//16 15//15
f 106//106 40//40 58//58
f 7//7 30//30 54//54
f 7//7 16//16 30//30
f 7//7 6//6 16//16
f 54//54 53//53 47//47
f 18//18 12//12 19//19
f 18//18 96//96 12//12
f 18//18 9//9 96//96
f 42//42 58//58 57//57
f 57//57 85//85 42//42
f 1//1 15//15 42//42
f 85//85 1//1 42//42
f 1//1 85//85 15//15
f 2//2 27//27 30//30
f 25//25 27//27 2//2
f 16//16 2//2 30//30
f 2//2 16//16 25//25
f 29//29 12//12 34//34
f 34//34 4//4 29//29
f 29//29 4//4 30//30
f 60//60 4//4 34//34
f 49//49 4//4 60//60
f 60//60 34//34 33//33
f 3//3 49//49 30//30
f 3//3 30//30 4//4
f 3//3 4//4 49//49
f 44//44 6//6 106//106
f 44//44 16//16 6//6
f 72//72 106//106 6//6
f 71//71 54//54 47//47
f 47//47 41//41 71//71
f 71//71 6//6 54//54
f 71//71 72//72 6//6
f 5//5 54//54 6//6
f 7//7 5//5 6//6
f 5//5 7//7 54//54
f 9//9 23//23 22//22
f 18//18 23//23 9//9
f 20//20 8//8 22//22
f 8//8 9//9 22//22
f 95//95 20//20 58//58
f 95//95 58//58 40//40
f 95//95 8//8 20//20
f 9//9 8//8 95//95
f 95//95 96//96 9//9
f 21//21 23//23 10//10
f 10//10 23//23 83//83
f 83//83 23//23 26//26
f 11//11 16//16 83//83
f 83//83 16//16 85//85
f 83//83 21//21 10//10
f 83//83 25//25 11//11
f 31//31 12//12 29//29
f 30//30 27//27 31//31
f 19//19 12//12 31//31
f 31//31 26//26 19//19
f 27//27 26//26 31//31
f 61//61 60//60 33//33
f 63//63 41//41 47//47
f 88//88 65//65 37//37
f 88//88 37//37 38//38
f 88//88 38//38 90//90
f 65//65 64//64 37//37
f 68//68 61//61 33//33
f 37//37 64//64 36//36
f 101//101 95//95 40//40
f 95//95 101//101 69//69
f 13//13 74//74 41//41
f 13//13 63//63 90//90
f 41//41 63//63 13//13
f 90//90 38//38 13//13
f 13//13 38//38 74//74
f 106//106 105//105 40//40
f 105//105 74//74 40//40
f 45//45 58//58 42//42
f 45//45 106//106 58//58
f 42//42 15//15 14//14
f 14//14 44//44 42//42
f 15//15 16//16 14//14
f 44//44 14//14 16//16
f 47//47 53//53 48//48
f 52//52 48//48 53//53
f 50//50 54//54 49//49
f 17//17 18//18 19//19
f 17//17 23//23 18//18
f 17//17 19//19 26//26
f 23//23 17//17 26//26
f 55//55 58//58 20//20
f 83//83 55//55 21//21
f 55//55 20//20 22//22
f 23//23 55//55 22//22
f 21//21 55//55 23//23
f 84//84 85//85 57//57
f 58//58 55//55 84//84
f 83//83 24//24 25//25
f 24//24 83//83 26//26
f 24//24 27//27 25//25
f 24//24 26//26 27//27
f 28//28 29//29 30//30
f 30//30 31//31 28//28
f 28//28 31//31 29//29
f 89//89 77//77 64//64
f 77//77 89//89 78//78
f 32//32 96//96 68//68
f 32//32 68//68 33//33
f 32//32 34//34 96//96
f 32//32 33//33 34//34
f 62//62 36//36 64//64
f 62//62 68//68 103//103
f 62//62 103//103 36//36
f 103//103 67//67 100//100
f 67//67 98//98 100//100
f 39//39 36//36 103//103
f 103//103 101//101 39//39
f 37//37 36//36 35//35
f 35//35 38//38 37//37
f 36//36 39//39 35//35
f 35//35 39//39 101//101
f 35//35 74//74 38//38
f 40//40 74//74 35//35
f 35//35 101//101 40//40
f 70//70 71//71 41//41
f 41//41 74//74 75//75
f 75//75 70//70 41//41
f 70//70 75//75 105//105
f 42//42 44//44 46//46
f 46//46 45//45 42//42
f 43//43 44//44 106//106
f 106//106 45//45 43//43
f 43//43 46//46 44//44
f 45//45 46//46 43//43
f 51//51 63//63 47//47
f 47//47 48//48 51//51
f 92//92 63//63 51//51
f 51//51 48//48 52//52
f 51//51 89//89 92//92
f 89//89 51//51 80//80
f 60//60 77//77 79//79
f 49//49 60//60 79//79
f 79//79 50//50 49//49
f 51//51 79//79 80//80
f 79//79 51//51 52//52
f 79//79 52//52 53//53
f 79//79 53//53 54//54
f 54//54 50//50 79//79
f 82//82 55//55 83//83
f 82//82 84//84 55//55
f 56//56 57//57 58//58
f 58//58 84//84 56//56
f 56//56 84//84 57//57
f 59//59 64//64 77//77
f 59//59 77//77 60//60
f 59//59 60//60 61//61
f 59//59 62//62 64//64
f 61//61 68//68 59//59
f 68//68 62//62 59//59
f 91//91 63//63 92//92
f 90//90 63//63 91//91
f 87//87 64//64 65//65
f 87//87 89//89 64//64
f 65//65 88//88 87//87
f 66//66 98//98 67//67
f 66//66 67//67 103//103
f 68//68 66//66 103//103
f 66//66 68//68 96//96
f 66//66 96//96 98//98
f 69//69 101//101 97//97
f 97//97 95//95 69//69
f 97//97 100//100 98//98
f 103//103 100//100 102//102
f 107//107 70//70 105//105
f 107//107 71//71 70//70
f 106//106 72//72 107//107
f 72//72 71//71 107//107
f 74//74 105//105 73//73
f 73//73 75//75 74//74
f 75//75 73//73 105//105
f 76//76 77//77 78//78
f 76//76 79//79 77//77
f 79//79 76//76 80//80
f 78//78 89//89 76//76
f 76//76 89//89 80//80
f 81//81 82//82 83//83
f 81//81 84//84 82//82
f 81//81 83//83 85//85
f 85//85 84//84 81//81
f 86//86 87//87 88//88
f 86//86 89//89 87//87
f 86//86 88//88 90//90
f 90//90 91//91 86//86
f 92//92 89//89 86//86
f 86//86 91//91 92//92
f 101//101 100//100 93//93
f 93//93 97//97 101//101
f 93//93 100//100 97//97
f 94//94 96//96 95//95
f 97//97 94//94 95//95
f 94//94 98//98 96//96
f 94//94 97//97 98//98
f 99//99 100//100 101//101
f 99//99 102//102 100//100
f 99//99 101//101 103//103
f 103//103 102//102 99//99
f 104//104 105//105 106//106
f 107//107 104//104 106//106
f 104//104 107//107 105//105
# 210 faces, 0 coords texture

# End of File
