####
#
# OBJ File Generated by Meshlab
#
####
# Object WCPaperDown.obj
#
# Vertices: 20
# Faces: 36
#
####
vn 0.495994 -3.078104 -2.206408
v 0.535700 -0.553900 0.223500
vn 1.891024 -0.874168 -1.026934
v 0.537400 -0.553000 0.223400
vn -3.714042 -4.377625 -2.537475
v 0.497500 -0.560600 0.284800
vn -4.733278 1.952249 -0.712470
v 0.485500 -0.426900 0.299300
vn -1.873186 0.986900 2.121389
v 0.485400 -0.427800 0.304100
vn -5.427529 -0.339350 -3.129912
v 0.512100 -0.550100 0.253000
vn -2.409304 -1.192902 1.017452
v 0.493600 -0.558000 0.286300
vn -2.100626 -1.510787 -3.594269
v 0.529600 -0.550700 0.223200
vn -2.640214 1.519464 -3.780929
v 0.522600 -0.427500 0.232300
vn 4.384334 4.072502 1.394912
v 0.519900 -0.422500 0.252200
vn 1.044518 1.466870 -1.212666
v 0.527200 -0.424100 0.232400
vn -0.129147 4.583031 -0.640831
v 0.507200 -0.416900 0.271400
vn 5.411739 1.892049 2.461518
v 0.510500 -0.421000 0.274700
vn 5.462215 1.499460 1.806728
v 0.525200 -0.427800 0.246600
vn 3.576266 2.255083 3.613580
v 0.498800 -0.422700 0.292500
vn -1.144487 3.111094 0.205451
v 0.495100 -0.417400 0.288100
vn 1.489504 1.759454 3.931062
v 0.488900 -0.427400 0.303800
vn 3.624154 3.581015 2.229883
v 0.508400 -0.419000 0.277500
vn 5.168379 0.701440 3.248583
v 0.509300 -0.424300 0.278800
vn 0.168776 -1.566388 0.916632
v 0.497900 -0.561700 0.286200
# 20 vertices, 0 vertices normals

f 8//8 11//11 2//2
f 20//20 2//2 19//19
f 20//20 5//5 7//7
f 20//20 1//1 2//2
f 2//2 1//1 8//8
f 8//8 1//1 20//20
f 8//8 9//9 11//11
f 20//20 17//17 5//5
f 17//17 16//16 5//5
f 11//11 14//14 2//2
f 19//19 2//2 14//14
f 3//3 8//8 20//20
f 7//7 3//3 20//20
f 8//8 3//3 7//7
f 7//7 5//5 4//4
f 9//9 7//7 4//4
f 16//16 4//4 5//5
f 4//4 16//16 9//9
f 7//7 6//6 8//8
f 6//6 9//9 8//8
f 9//9 6//6 7//7
f 18//18 12//12 16//16
f 9//9 12//12 11//11
f 16//16 12//12 9//9
f 11//11 10//10 14//14
f 10//10 18//18 14//14
f 12//12 10//10 11//11
f 10//10 12//12 18//18
f 14//14 13//13 19//19
f 18//18 19//19 13//13
f 18//18 13//13 14//14
f 16//16 17//17 15//15
f 15//15 18//18 16//16
f 18//18 15//15 19//19
f 19//19 15//15 20//20
f 17//17 20//20 15//15
# 36 faces, 0 coords texture

# End of File
